<svg version="1.1" id="Layer_1" xmlns="http://www.w3.org/2000/svg" xmlns:xlink="http://www.w3.org/1999/xlink" x="0px" y="0px"
	 width="100%" viewBox="0 0 2000 1500" enable-background="new 0 0 2000 1500" xml:space="preserve">
<path fill="#000000" opacity="1.000000" stroke="none" 
	d="
M1219.000000,1501.000000 
	C812.666809,1501.000000 406.833588,1501.000000 1.000272,1501.000000 
	C1.000181,1001.000244 1.000181,501.000549 1.000091,1.000608 
	C667.666199,1.000405 1334.332397,1.000405 2000.998901,1.000203 
	C2000.999268,500.999390 2000.999268,1000.998779 2000.999634,1500.999023 
	C1740.500000,1501.000000 1480.000000,1501.000000 1219.000000,1501.000000 
M1443.570923,661.450439 
	C1440.652222,664.501709 1437.765381,667.584167 1434.804321,670.593811 
	C1432.669067,672.764038 1430.435059,674.837280 1428.245117,676.953796 
	C1427.669922,676.603271 1427.094849,676.252686 1426.519653,675.902100 
	C1426.519653,666.770325 1427.231567,657.572205 1426.386841,648.519226 
	C1423.820190,621.011169 1420.530029,593.571289 1417.802856,566.076965 
	C1417.109741,559.088501 1414.776367,553.118713 1411.036743,547.191284 
	C1383.974976,504.297974 1357.218384,461.212280 1330.211060,418.284485 
	C1326.687500,412.684052 1322.638184,407.320770 1318.228516,402.387604 
	C1298.339355,380.137268 1274.553467,362.985168 1247.808105,349.939850 
	C1225.475830,339.047058 1202.437988,329.590820 1177.621826,326.785980 
	C1161.829590,325.001068 1145.706909,326.334381 1129.755615,325.690979 
	C1120.330200,325.310791 1112.943115,327.440216 1109.787231,337.345367 
	C1100.968384,332.446686 1092.065308,334.601105 1083.327759,334.929138 
	C1076.120972,335.199738 1070.505127,338.432556 1067.114380,344.840942 
	C1063.593628,351.495209 1064.144775,358.335297 1068.671387,364.118530 
	C1072.208130,368.637024 1076.510742,372.799957 1081.170654,376.150757 
	C1096.723267,387.334198 1114.717651,390.872101 1133.439331,391.880737 
	C1135.803711,392.008087 1138.381104,392.677887 1140.406738,393.867798 
	C1154.162842,401.948669 1168.248779,409.577972 1181.385254,418.582764 
	C1218.982178,444.354614 1256.385376,470.423340 1293.384399,497.043060 
	C1302.546997,503.635284 1310.493164,503.649658 1319.585815,498.637177 
	C1322.723755,496.907318 1325.959473,495.354797 1329.517090,493.533630 
	C1329.517090,498.798218 1328.692017,503.452209 1329.676025,507.685638 
	C1332.333740,519.119019 1335.687378,530.394470 1338.903564,541.693054 
	C1342.435059,554.098633 1349.935547,563.315552 1360.936157,570.163086 
	C1370.055176,575.839355 1375.561401,584.632080 1375.951660,595.351990 
	C1376.249146,603.520386 1374.528564,611.761047 1373.726196,619.971558 
	C1373.556152,621.711609 1372.809448,623.768311 1373.453247,625.158142 
	C1381.615479,642.781616 1391.105469,659.691162 1406.225708,672.294495 
	C1411.395996,676.604187 1414.758423,680.276611 1414.319702,687.360535 
	C1414.168213,689.805237 1416.697876,693.297363 1418.985352,694.650635 
	C1420.180420,695.357727 1423.538086,692.515320 1425.850708,691.159424 
	C1426.488770,690.785400 1426.881226,689.992493 1427.994507,688.668213 
	C1426.753296,700.500549 1425.472290,711.346619 1424.514648,722.221130 
	C1423.551147,733.164917 1423.475830,744.099365 1426.651245,755.819397 
	C1426.893188,753.831116 1427.000244,752.846375 1427.134399,751.865356 
	C1429.747925,732.752319 1431.855713,713.550781 1435.175049,694.560974 
	C1437.104126,683.524597 1440.978638,672.828308 1444.437500,661.909119 
	C1444.332031,661.726074 1444.226685,661.543030 1444.121216,661.359985 
	C1444.117188,661.595154 1444.113281,661.830261 1443.570923,661.450439 
M1092.955566,1077.327515 
	C1092.699951,1077.299316 1092.444214,1077.270996 1092.188599,1077.242676 
	C1092.276978,1077.655762 1092.365479,1078.068848 1092.651367,1079.260742 
	C1093.345215,1082.931763 1094.039185,1086.602783 1094.733032,1090.273804 
	C1094.205566,1090.403687 1093.678223,1090.533569 1093.150757,1090.663574 
	C1091.872070,1089.666870 1090.593506,1088.670166 1088.769043,1087.248047 
	C1089.375977,1094.865112 1087.838501,1100.916382 1080.934448,1104.318115 
	C1080.229370,1104.665527 1079.676514,1105.418457 1079.180786,1106.079102 
	C1075.360718,1111.168823 1070.084351,1112.373291 1063.976929,1113.150513 
	C1048.655396,1115.100220 1033.453857,1117.981689 1018.181396,1120.341553 
	C1015.479309,1120.759033 1012.524536,1121.042480 1009.927307,1120.405640 
	C982.907959,1113.781982 955.630188,1108.692261 927.948181,1105.797974 
	C913.549255,1104.292358 899.056580,1103.272339 884.806091,1100.854736 
	C863.828247,1097.295654 845.089050,1087.912720 827.027161,1076.482422 
	C836.593445,1071.362549 839.551331,1066.287964 837.011230,1061.508911 
	C833.787903,1063.305054 830.683960,1065.410889 827.288391,1066.808350 
	C824.561462,1067.930786 821.439148,1068.049194 818.568542,1068.877686 
	C815.032898,1069.898071 812.469788,1069.194702 809.821533,1066.340454 
	C804.502075,1060.606934 798.735168,1055.282837 793.068115,1049.878784 
	C759.908936,1018.258118 726.496277,986.898926 693.636719,954.970215 
	C674.247925,936.130554 656.093750,916.169617 647.319397,889.636597 
	C645.185486,883.183777 642.437012,876.927246 639.822205,870.642395 
	C637.179688,864.290833 634.352356,858.016235 631.482178,851.423462 
	C628.189636,854.055908 625.926514,857.949097 621.696594,854.399597 
	C617.364258,850.764099 615.057678,842.159119 617.390137,838.102600 
	C620.258301,833.114258 624.135864,835.047852 628.382141,837.239563 
	C625.990234,820.576721 623.667664,804.616943 621.417664,788.646973 
	C619.871765,777.674622 616.686035,766.506287 623.339661,756.102295 
	C630.427002,745.019958 631.780762,732.565186 633.072388,719.923340 
	C636.017029,691.101318 638.948853,662.269165 642.562927,633.526245 
	C648.801453,583.911377 669.651733,540.693054 703.503601,504.348297 
	C725.950867,480.247986 750.473572,458.073914 774.225769,435.202148 
	C778.392700,431.189667 783.013184,427.427673 787.987610,424.510712 
	C816.514526,407.782532 844.862671,390.699585 873.937134,374.967316 
	C912.136780,354.297333 953.240723,344.588379 996.825623,346.054199 
	C1002.809021,346.255432 1008.829468,346.381165 1014.791321,345.958405 
	C1023.697327,345.326874 1029.170532,341.201508 1030.271362,333.122650 
	C1031.210449,326.229828 1030.465454,319.107574 1030.465454,311.682098 
	C1023.999878,314.567322 1018.923828,312.017944 1014.146545,308.218903 
	C1010.889893,305.629089 1007.784180,302.812775 1004.336060,300.509186 
	C999.245911,297.108704 994.018555,295.184326 987.744995,298.454010 
	C983.074280,300.888336 977.810669,302.173462 972.838013,304.041809 
	C951.052490,312.227112 929.236023,320.351685 910.036133,333.967773 
	C908.756226,334.875366 907.417114,335.699402 905.410889,337.019257 
	C905.895447,332.139771 906.569885,328.183105 906.567505,324.226837 
	C906.566223,322.112610 905.878052,318.639374 904.643188,318.202789 
	C902.774109,317.541992 899.776245,318.433075 897.943604,319.675812 
	C894.805969,321.803436 892.222290,324.739716 889.363647,327.288879 
	C884.023621,332.050568 878.752258,336.896759 873.262695,341.480713 
	C869.220032,344.856384 864.616638,345.750641 859.243774,344.650330 
	C855.434326,343.870209 851.211670,343.925415 847.374817,344.659790 
	C827.544678,348.455231 814.657471,360.750458 807.144897,378.984436 
	C805.943604,381.900024 804.721313,383.396271 801.626038,383.258545 
	C794.825928,382.955963 787.971680,383.125916 781.235168,382.311951 
	C770.600281,381.026855 761.296509,382.566956 753.177979,390.447449 
	C730.111328,412.837738 706.825439,435.005127 683.415466,457.036652 
	C676.757019,463.303009 672.308350,470.576324 669.926636,479.293213 
	C667.289001,488.946808 662.643799,497.487610 655.422241,504.500458 
	C645.027954,514.594299 635.058044,525.192078 624.063538,534.587891 
	C594.176758,560.128967 576.545898,592.354797 569.945862,630.824158 
	C565.445251,657.056885 561.182861,683.331482 557.041626,709.623230 
	C556.620361,712.297974 557.042236,715.605469 558.298401,717.967590 
	C571.835999,743.424194 583.786194,769.501343 590.417725,797.716919 
	C592.128723,804.996704 593.607239,812.346191 594.810364,819.725952 
	C595.996582,827.001770 592.565979,829.958984 585.272705,828.445740 
	C584.663513,828.319336 584.036011,828.280823 583.359375,828.194153 
	C582.337402,844.987793 582.916260,861.254578 590.699524,876.598389 
	C594.823242,884.727844 598.005798,893.331909 601.682251,901.691467 
	C617.791016,938.320435 634.915527,974.529480 647.505737,1012.611023 
	C649.056396,1017.301270 649.920715,1021.436279 656.231445,1023.417725 
	C664.187134,1025.915771 666.620422,1033.971802 667.911133,1041.829956 
	C670.110352,1055.218872 674.043457,1068.054810 680.962524,1079.790405 
	C693.595520,1101.217529 711.425293,1113.743774 737.346130,1112.158447 
	C740.998474,1111.935059 744.681946,1111.984619 748.340637,1112.144653 
	C758.049072,1112.569214 766.982544,1115.125488 774.571777,1121.606445 
	C789.191650,1134.091064 806.307678,1139.235962 825.357239,1138.595459 
	C826.786072,1138.547363 828.423584,1138.716675 829.645020,1139.375977 
	C852.006042,1151.447998 874.381287,1163.496704 896.595398,1175.835205 
	C901.987000,1178.829956 906.761169,1183.504028 913.109924,1175.265869 
	C913.109924,1181.249512 913.109924,1185.487671 913.109924,1189.827271 
	C914.388550,1189.827271 915.203430,1189.895386 916.003967,1189.817261 
	C934.063904,1188.054443 952.090515,1185.784790 970.188354,1184.615967 
	C996.566467,1182.912598 1022.778442,1184.237671 1048.388916,1191.742920 
	C1050.309082,1192.305908 1052.550293,1191.837158 1054.638306,1191.750488 
	C1061.703857,1191.457397 1069.213257,1189.449829 1075.727905,1191.188843 
	C1085.680176,1193.845703 1094.869263,1199.267578 1104.539551,1203.121338 
	C1108.281250,1204.612305 1112.414795,1205.446777 1116.438477,1205.801514 
	C1119.718506,1206.090820 1121.189819,1203.858765 1120.275269,1200.498901 
	C1119.929443,1199.228638 1119.545410,1197.968750 1119.135620,1196.554932 
	C1128.548096,1190.613525 1139.486328,1189.744873 1149.831543,1186.880005 
	C1157.462036,1184.767090 1162.708740,1186.720703 1166.779663,1193.246338 
	C1168.086914,1195.341797 1169.704712,1197.384766 1171.603271,1198.933350 
	C1173.802979,1200.727539 1176.468628,1201.950562 1179.586182,1203.812134 
	C1179.586182,1199.333008 1179.520996,1196.048584 1179.598022,1192.767700 
	C1179.843628,1182.324707 1183.167603,1179.026001 1193.564087,1179.110962 
	C1197.840942,1179.145996 1202.114746,1179.527954 1206.881836,1179.777954 
	C1206.690552,1176.591309 1205.998901,1173.718994 1206.476929,1171.056519 
	C1207.242188,1166.795288 1207.656982,1161.735840 1210.209106,1158.669556 
	C1217.652100,1149.727295 1225.878662,1141.399780 1234.194092,1133.234741 
	C1239.589478,1127.936768 1245.678101,1123.344727 1251.534668,1118.369751 
	C1256.825806,1124.064209 1261.352173,1128.935547 1266.698608,1134.689331 
	C1266.894409,1125.798340 1264.341797,1119.496460 1259.628052,1114.000610 
	C1257.679443,1111.728760 1255.540161,1109.619629 1253.611450,1107.331909 
	C1251.627686,1104.978638 1251.983643,1102.912231 1255.065674,1102.088623 
	C1265.236694,1099.371216 1275.220337,1092.150146 1286.591675,1101.948486 
	C1282.476929,1092.637939 1284.629883,1088.650024 1293.359741,1087.166748 
	C1295.639648,1086.779297 1298.012207,1086.822754 1300.339966,1086.852539 
	C1313.953613,1087.026123 1318.597412,1083.198364 1320.270264,1069.557495 
	C1320.765503,1065.519409 1322.299316,1062.447754 1324.942261,1059.500244 
	C1361.971191,1018.203125 1388.324707,970.591492 1407.844971,918.958740 
	C1408.351562,917.618835 1408.691284,916.215881 1409.471436,913.649414 
	C1406.643799,915.751404 1404.761963,917.070007 1402.966919,918.497864 
	C1392.300903,926.982361 1383.551392,937.157227 1376.316650,948.683044 
	C1371.197876,956.838135 1369.215576,957.514038 1360.603394,954.270752 
	C1358.952759,959.406311 1357.302734,964.539978 1355.652710,969.673584 
	C1355.389648,969.622131 1355.126587,969.570618 1354.863525,969.519104 
	C1355.030396,965.735779 1355.197266,961.952515 1355.392212,957.531494 
	C1353.765747,958.760986 1352.853638,959.459534 1351.932007,960.145630 
	C1313.347046,988.869568 1274.922607,1017.812866 1236.095703,1046.206055 
	C1220.667603,1057.488403 1204.443970,1067.699585 1188.399658,1078.116943 
	C1177.663208,1085.087891 1171.747070,1083.636963 1165.869995,1073.386597 
	C1165.752563,1073.181885 1165.364380,1073.132568 1164.877319,1072.906128 
	C1161.954224,1075.457031 1159.180176,1078.426147 1155.870850,1080.568604 
	C1153.740967,1081.947510 1150.824585,1082.111694 1148.260742,1082.820312 
	C1147.679688,1080.212158 1147.063843,1077.610840 1146.546021,1074.990234 
	C1146.437500,1074.441040 1146.689697,1073.820679 1146.822998,1072.909058 
	C1142.059326,1072.909058 1137.036133,1071.643921 1133.276489,1073.280762 
	C1129.825439,1074.783325 1127.736450,1079.414185 1124.890747,1082.855957 
	C1123.310547,1080.515503 1121.715576,1078.152954 1119.326416,1074.614380 
	C1118.295166,1080.514526 1117.520630,1084.946045 1116.790527,1089.124023 
	C1115.578735,1087.799683 1114.346436,1086.452881 1113.114136,1085.106079 
	C1110.447144,1087.676392 1107.780151,1090.246582 1105.420532,1092.520508 
	C1101.585815,1087.981079 1097.333984,1082.947632 1092.955566,1077.327515 
M971.598511,531.154785 
	C969.490356,531.627686 967.355042,532.003906 965.278198,532.588013 
	C929.223877,542.726379 916.689087,586.997986 942.039734,614.650940 
	C944.401917,617.227600 946.856201,619.719910 949.929871,622.946594 
	C947.095093,622.946594 945.458191,622.946594 943.821289,622.946594 
	C910.324524,622.946594 876.827698,622.946472 843.330933,622.947083 
	C842.164429,622.947083 840.867981,622.631531 839.862854,623.036255 
	C838.461914,623.600159 836.752319,624.450806 836.168396,625.658997 
	C835.696716,626.634949 836.351013,628.558472 837.103882,629.648560 
	C839.552429,633.193848 842.269531,636.554077 844.894165,639.977173 
	C851.268738,648.290894 857.225647,656.974426 864.146545,664.805786 
	C871.113953,672.689819 873.960876,672.447021 881.951477,665.513916 
	C883.028809,667.861328 884.165466,670.039551 885.046814,672.316528 
	C887.322937,678.197021 889.108643,684.298462 891.778870,689.988464 
	C896.353394,699.736511 901.527161,700.467468 909.355530,692.300232 
	C911.023315,696.583618 912.468628,700.591980 914.135437,704.506042 
	C916.595703,710.283386 918.627869,716.360840 921.930481,721.628296 
	C925.182617,726.815247 930.082947,726.881165 933.602966,722.903687 
	C934.454163,721.942078 935.189148,720.877686 936.261475,719.494324 
	C938.033386,721.512268 939.718201,723.106079 941.019897,724.967834 
	C947.883118,734.784363 954.863281,744.529663 961.386719,754.570190 
	C967.299927,763.671448 974.574646,769.373596 986.126160,767.329529 
	C988.226807,766.957764 990.449707,767.276489 992.616150,767.276489 
	C1033.278931,767.276489 1073.941650,767.254395 1114.604370,767.287170 
	C1131.189087,767.300537 1144.772949,760.949951 1154.853149,747.834595 
	C1170.862183,727.005493 1168.456299,699.888794 1149.004272,680.398682 
	C1104.857910,636.165833 1060.549072,592.094360 1016.512268,547.752869 
	C1004.198547,535.354004 989.882690,529.387085 971.598511,531.154785 
M884.605591,888.263977 
	C886.911743,888.263977 889.217896,888.263977 892.102661,888.263977 
	C892.102661,884.828796 892.102661,881.827454 892.102661,878.077881 
	C904.496887,894.981750 933.693970,893.622314 943.188904,870.677246 
	C948.830688,857.043457 948.791138,843.386292 942.788452,830.030212 
	C936.760498,816.617920 924.956970,810.338257 910.417419,811.917908 
	C902.771240,812.748657 897.132507,817.029114 891.692749,823.678833 
	C891.692749,809.362854 891.692749,796.301575 891.692749,783.288818 
	C887.539673,783.288818 883.817078,783.288818 880.122314,783.288818 
	C880.122314,818.380493 880.122314,853.138611 880.122314,888.057312 
	C881.423584,888.132141 882.570251,888.198059 884.605591,888.263977 
M1024.215576,850.021973 
	C1024.181274,847.191956 1024.272827,844.353943 1024.092529,841.533264 
	C1022.728577,820.192993 1006.125366,807.951233 985.271606,812.862915 
	C971.740356,816.049988 963.042175,826.694397 960.451416,843.236938 
	C957.155151,864.283875 967.223267,882.641663 985.805237,887.193481 
	C993.167053,888.996765 1001.333923,888.699158 1008.976685,887.882812 
	C1019.572937,886.750854 1019.979065,885.587646 1019.685303,875.075500 
	C1019.677917,874.811401 1019.433594,874.553894 1019.300659,874.295105 
	C990.578186,886.152039 972.804016,872.191223 972.505737,855.609253 
	C989.457520,855.609253 1006.408997,855.609253 1023.612732,855.609253 
	C1023.830261,853.776978 1024.001953,852.330994 1024.215576,850.021973 
M1082.499268,855.589111 
	C1088.779419,855.589111 1095.059692,855.589111 1101.886230,855.589111 
	C1101.886230,849.865295 1102.409912,844.684387 1101.782227,839.646973 
	C1100.263184,827.456482 1094.752197,817.851868 1082.431519,813.599487 
	C1064.922485,807.556335 1047.058105,816.030884 1040.703857,833.409607 
	C1037.117065,843.219299 1036.716431,853.321350 1039.532349,863.329346 
	C1045.760376,885.464722 1075.651855,897.124390 1095.569824,885.320801 
	C1096.409302,884.823242 1097.318848,883.692627 1097.391968,882.791748 
	C1097.625000,879.919006 1097.478271,877.015442 1097.478271,873.838257 
	C1073.332397,884.713257 1049.994873,875.473999 1050.605835,855.589050 
	C1060.895142,855.589050 1071.197388,855.589050 1082.499268,855.589111 
M1261.184937,873.676270 
	C1266.630859,864.939697 1267.698608,855.288879 1266.906006,845.322449 
	C1265.487793,827.486511 1253.784912,814.200684 1237.817749,812.107849 
	C1219.103394,809.655029 1204.041870,818.601624 1198.611328,836.164978 
	C1196.877075,841.774475 1196.141968,847.965210 1196.330566,853.845703 
	C1196.881226,870.999084 1206.347168,884.000671 1220.423706,888.163391 
	C1236.328125,892.866699 1251.261841,887.754089 1261.184937,873.676270 
M811.748596,826.210815 
	C818.361694,824.867065 824.955688,822.544678 831.592468,822.415100 
	C840.921143,822.232849 845.474304,827.132385 846.629822,836.387939 
	C846.929138,838.785461 846.674927,841.252075 846.674927,844.026489 
	C841.990173,844.026489 837.456421,843.569458 833.054688,844.136597 
	C826.854431,844.935547 820.420898,845.654663 814.683594,847.919067 
	C805.598022,851.505066 801.277100,859.931458 802.306641,869.169739 
	C803.388428,878.875488 809.320129,886.033569 818.785156,888.154236 
	C829.137573,890.473694 838.800903,889.128174 847.016846,880.241455 
	C847.016846,883.443420 847.016846,885.712219 847.016846,887.911621 
	C851.080444,887.911621 854.819702,887.911621 858.115356,887.911621 
	C858.115356,869.572815 858.654297,851.571655 857.924622,833.622009 
	C857.443176,821.777161 849.881775,814.015198 838.343628,812.388855 
	C832.175598,811.519470 825.639221,811.656250 819.482910,812.655823 
	C807.772827,814.557068 807.512695,815.353699 807.935669,827.001282 
	C807.944885,827.254578 808.215271,827.498474 808.483521,827.946716 
	C809.348633,827.513000 810.208740,827.081787 811.748596,826.210815 
M1120.066040,819.655823 
	C1120.066040,842.410645 1120.066040,865.165466 1120.066040,887.901733 
	C1124.257690,887.901733 1127.975586,887.901733 1131.871704,887.901733 
	C1131.871704,874.055237 1131.638306,860.568909 1132.002441,847.098694 
	C1132.124756,842.575500 1133.028076,837.761169 1134.868774,833.661011 
	C1138.827148,824.843506 1148.288330,820.684937 1157.223389,822.944824 
	C1164.398193,824.759521 1167.917603,830.662598 1167.987427,841.005127 
	C1167.995239,842.170593 1167.988770,843.336121 1167.988770,844.501648 
	C1167.988770,858.966980 1167.988770,873.432251 1167.988770,888.026184 
	C1172.069336,888.026184 1175.845947,888.026184 1179.795532,888.026184 
	C1179.795532,869.979553 1180.068726,852.168762 1179.685059,834.372192 
	C1179.480713,824.897583 1175.213989,817.102417 1165.885986,813.692200 
	C1155.961182,810.063904 1146.209106,810.820251 1137.708984,817.851379 
	C1135.662354,819.544250 1134.121826,821.849182 1131.859009,824.431274 
	C1131.859009,820.172363 1131.859009,816.713318 1131.859009,813.028931 
	C1127.843506,813.028931 1124.074951,813.028931 1120.066040,813.028931 
	C1120.066040,815.061035 1120.066040,816.883301 1120.066040,819.655823 
M733.903381,798.516724 
	C733.903381,828.298096 733.903381,858.079529 733.903381,887.903076 
	C738.067688,887.903076 741.936340,887.903076 746.223999,887.903076 
	C746.223999,873.314941 746.223999,859.080200 746.223999,844.536011 
	C758.918579,844.536011 771.185913,844.536011 783.662109,844.536011 
	C783.662109,840.972839 783.662109,837.732544 783.662109,834.027893 
	C771.069153,834.027893 758.682861,834.027893 746.171509,834.027893 
	C746.171509,821.980225 746.171509,810.397522 746.171509,798.431519 
	C760.453613,798.431519 774.536560,798.431519 788.809021,798.431519 
	C788.809021,794.804138 788.809021,791.560913 788.809021,787.916870 
	C779.505188,787.916870 770.395264,787.916809 761.285339,787.916809 
	C752.206360,787.916809 743.127380,787.916870 733.903381,787.916870 
	C733.903381,791.557495 733.903381,794.541138 733.903381,798.516724 
M733.864868,932.436401 
	C734.652771,945.122681 743.957397,954.868591 755.973633,955.150879 
	C763.962219,955.338623 771.964294,955.032471 779.957520,954.835632 
	C780.902466,954.812378 781.830078,954.082153 782.765686,953.679626 
	C782.665710,953.191895 782.565735,952.704102 782.465759,952.216309 
	C778.460815,952.216309 774.455811,952.216309 769.779175,952.216309 
	C781.122437,942.001282 783.890747,931.737671 778.666138,921.266479 
	C773.866455,911.646729 762.974731,906.213196 752.889526,908.407288 
	C741.631958,910.856445 734.407471,919.634705 733.864868,932.436401 
M1073.384766,908.577942 
	C1069.387207,908.577942 1065.384766,908.452759 1061.393677,908.613892 
	C1057.573730,908.768188 1053.563843,907.850891 1049.909302,909.248230 
	C1049.928467,909.697632 1049.947632,910.147095 1049.966675,910.596558 
	C1051.482666,910.912354 1052.998657,911.228149 1054.673950,911.577148 
	C1054.673950,924.902161 1054.673950,938.199890 1054.673950,951.534973 
	C1053.101929,951.958801 1051.508423,952.388428 1049.537964,952.919739 
	C1053.482300,956.000061 1061.834473,955.538757 1063.186768,952.286804 
	C1061.375122,952.127869 1059.649780,951.976501 1057.969604,951.829163 
	C1057.969604,945.388123 1057.969604,939.323242 1057.969604,932.939270 
	C1062.053955,932.939270 1065.859009,933.011475 1069.659912,932.917786 
	C1073.064453,932.833862 1076.464600,932.567261 1079.866577,932.381287 
	C1079.813843,931.630066 1079.761108,930.878906 1079.708374,930.127686 
	C1072.398682,930.127686 1065.089111,930.127686 1057.943604,930.127686 
	C1057.943604,923.366577 1057.943604,917.403870 1057.943604,911.514587 
	C1065.263794,911.514587 1072.318970,911.514587 1079.240601,911.514587 
	C1079.640259,914.277222 1079.982544,916.643738 1080.324951,919.010193 
	C1080.790283,918.963745 1081.255737,918.917297 1081.721069,918.870850 
	C1081.721069,915.561462 1081.721069,912.252075 1081.721069,908.578064 
	C1079.267090,908.578064 1076.803589,908.578064 1073.384766,908.577942 
M1146.349609,939.493042 
	C1146.349609,943.470703 1146.349609,947.448364 1146.349609,951.463501 
	C1144.553589,951.967712 1142.997803,952.404419 1141.442139,952.841125 
	C1141.468628,953.362122 1141.495117,953.883118 1141.521606,954.404175 
	C1143.889160,954.604553 1146.256714,954.804932 1148.576050,955.001221 
	C1148.947388,953.335632 1149.203369,952.187439 1149.494995,950.879150 
	C1156.410767,956.263245 1163.226196,956.550781 1168.310913,951.911194 
	C1172.972656,947.657593 1174.047852,940.117554 1170.122559,935.150208 
	C1168.376953,932.941223 1165.548706,930.416504 1163.049194,930.231323 
	C1158.576538,929.899841 1153.980591,931.231628 1149.059326,931.921021 
	C1149.059326,923.802734 1149.059326,914.564148 1149.059326,904.686768 
	C1146.160522,905.173340 1143.909058,905.551270 1141.657471,905.929138 
	C1141.756958,906.520325 1141.856567,907.111450 1141.956055,907.702637 
	C1143.334351,907.883118 1144.712524,908.063660 1146.349731,908.278137 
	C1146.349731,918.542603 1146.349731,928.518494 1146.349609,939.493042 
M992.552185,944.892883 
	C991.483826,947.013611 990.415527,949.134399 989.000854,951.942627 
	C985.716492,945.283142 982.808289,939.386414 979.962646,933.616455 
	C981.427673,932.709045 982.680115,931.933350 984.909790,930.552368 
	C979.367676,930.552368 975.299500,930.552368 971.231323,930.552368 
	C970.969849,930.992554 970.708435,931.432739 970.446960,931.872925 
	C978.651978,931.762817 978.839233,938.608948 981.593262,943.165649 
	C983.302551,945.993713 984.625305,949.059998 986.046631,952.054932 
	C986.529968,953.073425 987.376465,954.452393 987.043457,955.236084 
	C985.297302,959.345154 983.544312,963.527405 981.093262,967.219360 
	C980.246216,968.495300 977.367126,968.387329 975.456604,969.031372 
	C975.183716,969.123352 975.139954,969.895142 974.898071,970.633301 
	C979.379578,970.633301 983.665649,970.633301 987.951721,970.633301 
	C988.004578,970.295654 988.057373,969.957947 988.110229,969.620300 
	C986.844910,969.045898 985.579590,968.471558 984.169983,967.831726 
	C989.025879,958.017456 993.681274,948.486023 998.461304,939.017517 
	C1000.005676,935.958313 1000.697571,931.755371 1005.753601,932.413818 
	C1005.878235,932.430115 1006.177246,931.108337 1006.437195,930.275146 
	C1002.361511,930.275146 998.661560,930.275146 994.961609,930.275146 
	C994.825134,930.630859 994.688599,930.986572 994.552063,931.342346 
	C995.681641,932.058716 996.811157,932.775085 998.063171,933.569153 
	C996.356384,937.067383 994.614014,940.638428 992.552185,944.892883 
M1115.469482,930.950073 
	C1107.242798,927.795532 1097.995605,930.795044 1097.383667,938.311890 
	C1095.869385,956.910217 1105.980957,957.718567 1119.808838,951.616821 
	C1119.938110,952.324951 1120.158813,953.533447 1120.449341,955.125183 
	C1122.976318,954.827148 1125.189697,954.566101 1127.403076,954.305115 
	C1127.354736,953.735474 1127.306396,953.165833 1127.258179,952.596191 
	C1125.768921,952.282227 1124.279663,951.968201 1122.194092,951.528503 
	C1122.194092,944.299561 1122.194092,937.139465 1122.194092,929.979431 
	C1121.764526,929.923767 1121.334839,929.868103 1120.905273,929.812439 
	C1120.430420,931.219543 1119.955566,932.626709 1119.447510,934.132019 
	C1118.153442,933.034363 1117.147339,932.181030 1115.469482,930.950073 
M844.225098,934.940918 
	C840.610901,941.924561 841.314270,947.646484 846.326538,952.036255 
	C851.443176,956.517334 857.719971,956.222290 864.152100,951.629456 
	C865.604248,952.825867 866.719910,954.383484 868.135498,954.735657 
	C869.613770,955.103394 871.380798,954.310547 873.021606,954.025024 
	C872.916626,953.486572 872.811584,952.948120 872.706543,952.409668 
	C871.172668,952.189392 869.638794,951.969177 867.625305,951.680115 
	C867.625305,944.266602 867.625305,937.132141 867.625305,929.997681 
	C867.270203,929.937195 866.915100,929.876648 866.559937,929.816101 
	C865.989746,931.143250 865.419556,932.470337 864.845520,933.806396 
	C857.141663,927.779724 851.232117,927.950500 844.225098,934.940918 
M799.027893,929.953125 
	C798.298401,930.363403 797.568909,930.773682 796.839478,931.184021 
	C798.392395,932.018860 799.945312,932.853760 801.685181,933.789185 
	C801.685181,938.282532 801.546936,942.933716 801.721802,947.573059 
	C801.920105,952.836365 804.833557,955.742798 810.044678,955.072571 
	C813.447083,954.634888 816.668152,952.787598 820.108459,951.520935 
	C820.289734,952.119751 820.691406,953.446899 821.165405,955.013000 
	C823.515076,954.825195 825.644043,954.655090 827.773071,954.484924 
	C827.802917,954.031555 827.832764,953.578186 827.862671,953.124756 
	C826.315186,952.652466 824.767700,952.180176 822.770386,951.570557 
	C822.770386,944.451538 822.770386,937.233154 822.770386,930.431152 
	C819.956665,930.431152 817.617004,930.431152 815.277344,930.431152 
	C815.206299,930.828674 815.135193,931.226196 815.064148,931.623718 
	C816.667664,932.214600 818.271240,932.805481 820.006287,933.444824 
	C820.006287,937.204407 820.278809,941.037659 819.936279,944.815125 
	C819.521484,949.388733 814.629944,952.887207 809.812683,952.403198 
	C804.913330,951.910950 804.314453,948.410583 804.352966,944.450256 
	C804.399170,939.697754 804.363892,934.944336 804.363892,929.952881 
	C802.480286,929.952881 801.164001,929.952881 799.027893,929.953125 
M946.804626,920.702820 
	C946.804626,923.660706 946.804626,926.618652 946.804626,929.620667 
	C944.697571,929.894653 942.846741,930.135254 940.995850,930.375916 
	C940.913391,930.844482 940.830933,931.313110 940.748474,931.781677 
	C942.642517,932.302734 944.536560,932.823792 946.822205,933.452576 
	C946.822205,940.389343 946.822205,947.466553 946.822205,955.173706 
	C949.880432,954.753601 952.463135,954.398804 955.045837,954.044006 
	C954.952698,953.518982 954.859558,952.994019 954.766479,952.469055 
	C953.044495,952.194275 951.322571,951.919495 949.801880,951.676819 
	C949.801880,945.266418 949.801880,939.203064 949.801880,933.419373 
	C952.533203,932.784973 954.920410,932.230469 957.307617,931.675964 
	C957.154053,931.166260 957.000427,930.656616 956.846802,930.146912 
	C954.437195,930.018921 952.027649,929.890869 949.719849,929.768311 
	C948.959961,924.263550 950.315308,918.882874 948.839355,913.906555 
	C948.161072,913.966309 947.482849,914.026062 946.804626,914.085815 
	C946.804626,915.982666 946.804626,917.879456 946.804626,920.702820 
M899.722473,952.650757 
	C898.172363,952.317078 896.622253,951.983398 894.607849,951.549744 
	C894.607849,936.120422 894.607849,920.738892 894.607849,905.019958 
	C891.749695,905.735168 888.719238,903.545227 886.698364,907.401489 
	C888.672058,907.773560 890.179077,908.057678 891.688721,908.342224 
	C891.688721,922.945984 891.688721,937.367615 891.688721,951.396484 
	C889.833618,952.110596 888.301025,952.700623 886.768433,953.290588 
	C886.976746,954.017273 887.185059,954.743896 887.393372,955.470520 
	C891.558167,954.818787 895.722900,954.166992 899.722473,952.650757 
M1250.849487,932.298157 
	C1244.812866,938.344482 1244.309692,945.790161 1249.570312,951.226562 
	C1254.455200,956.274719 1261.833008,956.585266 1266.437256,951.450989 
	C1265.005249,951.331055 1263.636597,951.551758 1262.309937,951.922729 
	C1257.362183,953.306396 1251.865112,951.828491 1250.400513,947.443604 
	C1249.322021,944.215027 1249.503540,939.913391 1250.752319,936.728699 
	C1252.235718,932.945251 1256.356445,931.928833 1260.489868,932.236145 
	C1264.558350,932.538513 1264.736938,935.583740 1265.144287,938.541870 
	C1265.164673,938.689392 1265.697632,938.766357 1265.992432,938.874695 
	C1268.396118,933.870911 1267.595825,930.771545 1262.862793,930.254333 
	C1259.163696,929.850220 1255.265991,931.263977 1250.849487,932.298157 
M1196.895752,932.785400 
	C1196.285278,933.308105 1195.674805,933.830750 1194.757812,934.615906 
	C1194.382690,932.888000 1194.083618,931.510315 1193.830444,930.344055 
	C1191.439941,930.344055 1189.252319,930.344055 1187.064819,930.344055 
	C1186.960938,930.756592 1186.857056,931.169128 1186.753296,931.581665 
	C1188.333130,932.161011 1189.912964,932.740417 1191.615112,933.364624 
	C1191.615112,939.387329 1191.615112,945.616516 1191.615112,951.796021 
	C1189.829468,952.041199 1188.309448,952.249878 1186.525269,952.494873 
	C1188.962158,955.799927 1197.181396,955.787292 1199.610596,952.643372 
	C1197.961670,952.287537 1196.474121,951.966553 1194.565552,951.554749 
	C1194.808228,946.989746 1193.890991,942.017517 1195.623413,938.270142 
	C1197.173340,934.916809 1201.644043,932.913574 1204.826050,930.314636 
	C1204.648315,929.960693 1204.470703,929.606750 1204.292969,929.252808 
	C1202.012207,930.242188 1199.731323,931.231567 1196.895752,932.785400 
M918.989929,948.292786 
	C918.989929,949.428589 918.989929,950.564392 918.989929,951.693787 
	C917.109802,951.993225 915.575256,952.237610 913.914185,952.502197 
	C915.975159,955.919067 924.827820,955.900024 926.881714,952.528381 
	C925.246643,952.248535 923.718079,951.986877 921.852173,951.667542 
	C921.852173,944.452087 921.852173,937.370056 921.852173,930.357178 
	C918.979309,930.357178 916.498047,930.357178 914.016846,930.357178 
	C913.919495,930.780396 913.822144,931.203552 913.724792,931.626770 
	C915.411011,932.222717 917.097168,932.818604 918.989990,933.487610 
	C918.989990,938.057861 918.989990,942.697754 918.989929,948.292786 
M1226.944702,948.283386 
	C1226.944702,942.214050 1226.944702,936.144653 1226.944702,930.267639 
	C1223.829102,930.267639 1221.430786,930.267639 1219.032349,930.267639 
	C1218.913452,930.698486 1218.794434,931.129272 1218.675415,931.560120 
	C1220.326782,932.175964 1221.978271,932.791809 1223.832275,933.483215 
	C1223.832275,939.354553 1223.832275,945.462830 1223.832275,951.754211 
	C1222.170654,951.983948 1220.621094,952.198120 1218.993286,952.423096 
	C1220.480713,955.495850 1228.190308,955.955933 1231.873779,953.380127 
	C1231.427368,950.585449 1225.761353,953.901611 1226.944702,948.283386 
z"/>
<path fill="#FEFEFE" opacity="1.000000" stroke="none" 
	d="
M1093.082153,1077.914307 
	C1097.333984,1082.947632 1101.585815,1087.981079 1105.420532,1092.520508 
	C1107.780151,1090.246582 1110.447144,1087.676392 1113.114136,1085.106079 
	C1114.346436,1086.452881 1115.578735,1087.799683 1116.790527,1089.124023 
	C1117.520630,1084.946045 1118.295166,1080.514526 1119.326416,1074.614380 
	C1121.715576,1078.152954 1123.310547,1080.515503 1124.890747,1082.855957 
	C1127.736450,1079.414185 1129.825439,1074.783325 1133.276489,1073.280762 
	C1137.036133,1071.643921 1142.059326,1072.909058 1146.822998,1072.909058 
	C1146.689697,1073.820679 1146.437500,1074.441040 1146.546021,1074.990234 
	C1147.063843,1077.610840 1147.679688,1080.212158 1148.260742,1082.820312 
	C1150.824585,1082.111694 1153.740967,1081.947510 1155.870850,1080.568604 
	C1159.180176,1078.426147 1161.954224,1075.457031 1164.877319,1072.906128 
	C1165.364380,1073.132568 1165.752563,1073.181885 1165.869995,1073.386597 
	C1171.747070,1083.636963 1177.663208,1085.087891 1188.399658,1078.116943 
	C1204.443970,1067.699585 1220.667603,1057.488403 1236.095703,1046.206055 
	C1274.922607,1017.812866 1313.347046,988.869568 1351.932007,960.145630 
	C1352.853638,959.459534 1353.765747,958.760986 1355.392212,957.531494 
	C1355.197266,961.952515 1355.030396,965.735779 1354.863525,969.519104 
	C1355.126587,969.570618 1355.389648,969.622131 1355.652710,969.673584 
	C1357.302734,964.539978 1358.952759,959.406311 1360.603394,954.270752 
	C1369.215576,957.514038 1371.197876,956.838135 1376.316650,948.683044 
	C1383.551392,937.157227 1392.300903,926.982361 1402.966919,918.497864 
	C1404.761963,917.070007 1406.643799,915.751404 1409.471436,913.649414 
	C1408.691284,916.215881 1408.351562,917.618835 1407.844971,918.958740 
	C1388.324707,970.591492 1361.971191,1018.203125 1324.942261,1059.500244 
	C1322.299316,1062.447754 1320.765503,1065.519409 1320.270264,1069.557495 
	C1318.597412,1083.198364 1313.953613,1087.026123 1300.339966,1086.852539 
	C1298.012207,1086.822754 1295.639648,1086.779297 1293.359741,1087.166748 
	C1284.629883,1088.650024 1282.476929,1092.637939 1286.591675,1101.948486 
	C1275.220337,1092.150146 1265.236694,1099.371216 1255.065674,1102.088623 
	C1251.983643,1102.912231 1251.627686,1104.978638 1253.611450,1107.331909 
	C1255.540161,1109.619629 1257.679443,1111.728760 1259.628052,1114.000610 
	C1264.341797,1119.496460 1266.894409,1125.798340 1266.698608,1134.689331 
	C1261.352173,1128.935547 1256.825806,1124.064209 1251.534668,1118.369751 
	C1245.678101,1123.344727 1239.589478,1127.936768 1234.194092,1133.234741 
	C1225.878662,1141.399780 1217.652100,1149.727295 1210.209106,1158.669556 
	C1207.656982,1161.735840 1207.242188,1166.795288 1206.476929,1171.056519 
	C1205.998901,1173.718994 1206.690552,1176.591309 1206.881836,1179.777954 
	C1202.114746,1179.527954 1197.840942,1179.145996 1193.564087,1179.110962 
	C1183.167603,1179.026001 1179.843628,1182.324707 1179.598022,1192.767700 
	C1179.520996,1196.048584 1179.586182,1199.333008 1179.586182,1203.812134 
	C1176.468628,1201.950562 1173.802979,1200.727539 1171.603271,1198.933350 
	C1169.704712,1197.384766 1168.086914,1195.341797 1166.779663,1193.246338 
	C1162.708740,1186.720703 1157.462036,1184.767090 1149.831543,1186.880005 
	C1139.486328,1189.744873 1128.548096,1190.613525 1119.135620,1196.554932 
	C1119.545410,1197.968750 1119.929443,1199.228638 1120.275269,1200.498901 
	C1121.189819,1203.858765 1119.718506,1206.090820 1116.438477,1205.801514 
	C1112.414795,1205.446777 1108.281250,1204.612305 1104.539551,1203.121338 
	C1094.869263,1199.267578 1085.680176,1193.845703 1075.727905,1191.188843 
	C1069.213257,1189.449829 1061.703857,1191.457397 1054.638306,1191.750488 
	C1052.550293,1191.837158 1050.309082,1192.305908 1048.388916,1191.742920 
	C1022.778442,1184.237671 996.566467,1182.912598 970.188354,1184.615967 
	C952.090515,1185.784790 934.063904,1188.054443 916.003967,1189.817261 
	C915.203430,1189.895386 914.388550,1189.827271 913.109924,1189.827271 
	C913.109924,1185.487671 913.109924,1181.249512 913.109924,1175.265869 
	C906.761169,1183.504028 901.987000,1178.829956 896.595398,1175.835205 
	C874.381287,1163.496704 852.006042,1151.447998 829.645020,1139.375977 
	C828.423584,1138.716675 826.786072,1138.547363 825.357239,1138.595459 
	C806.307678,1139.235962 789.191650,1134.091064 774.571777,1121.606445 
	C766.982544,1115.125488 758.049072,1112.569214 748.340637,1112.144653 
	C744.681946,1111.984619 740.998474,1111.935059 737.346130,1112.158447 
	C711.425293,1113.743774 693.595520,1101.217529 680.962524,1079.790405 
	C674.043457,1068.054810 670.110352,1055.218872 667.911133,1041.829956 
	C666.620422,1033.971802 664.187134,1025.915771 656.231445,1023.417725 
	C649.920715,1021.436279 649.056396,1017.301270 647.505737,1012.611023 
	C634.915527,974.529480 617.791016,938.320435 601.682251,901.691467 
	C598.005798,893.331909 594.823242,884.727844 590.699524,876.598389 
	C582.916260,861.254578 582.337402,844.987793 583.359375,828.194153 
	C584.036011,828.280823 584.663513,828.319336 585.272705,828.445740 
	C592.565979,829.958984 595.996582,827.001770 594.810364,819.725952 
	C593.607239,812.346191 592.128723,804.996704 590.417725,797.716919 
	C583.786194,769.501343 571.835999,743.424194 558.298401,717.967590 
	C557.042236,715.605469 556.620361,712.297974 557.041626,709.623230 
	C561.182861,683.331482 565.445251,657.056885 569.945862,630.824158 
	C576.545898,592.354797 594.176758,560.128967 624.063538,534.587891 
	C635.058044,525.192078 645.027954,514.594299 655.422241,504.500458 
	C662.643799,497.487610 667.289001,488.946808 669.926636,479.293213 
	C672.308350,470.576324 676.757019,463.303009 683.415466,457.036652 
	C706.825439,435.005127 730.111328,412.837738 753.177979,390.447449 
	C761.296509,382.566956 770.600281,381.026855 781.235168,382.311951 
	C787.971680,383.125916 794.825928,382.955963 801.626038,383.258545 
	C804.721313,383.396271 805.943604,381.900024 807.144897,378.984436 
	C814.657471,360.750458 827.544678,348.455231 847.374817,344.659790 
	C851.211670,343.925415 855.434326,343.870209 859.243774,344.650330 
	C864.616638,345.750641 869.220032,344.856384 873.262695,341.480713 
	C878.752258,336.896759 884.023621,332.050568 889.363647,327.288879 
	C892.222290,324.739716 894.805969,321.803436 897.943604,319.675812 
	C899.776245,318.433075 902.774109,317.541992 904.643188,318.202789 
	C905.878052,318.639374 906.566223,322.112610 906.567505,324.226837 
	C906.569885,328.183105 905.895447,332.139771 905.410889,337.019257 
	C907.417114,335.699402 908.756226,334.875366 910.036133,333.967773 
	C929.236023,320.351685 951.052490,312.227112 972.838013,304.041809 
	C977.810669,302.173462 983.074280,300.888336 987.744995,298.454010 
	C994.018555,295.184326 999.245911,297.108704 1004.336060,300.509186 
	C1007.784180,302.812775 1010.889893,305.629089 1014.146545,308.218903 
	C1018.923828,312.017944 1023.999878,314.567322 1030.465454,311.682098 
	C1030.465454,319.107574 1031.210449,326.229828 1030.271362,333.122650 
	C1029.170532,341.201508 1023.697327,345.326874 1014.791321,345.958405 
	C1008.829468,346.381165 1002.809021,346.255432 996.825623,346.054199 
	C953.240723,344.588379 912.136780,354.297333 873.937134,374.967316 
	C844.862671,390.699585 816.514526,407.782532 787.987610,424.510712 
	C783.013184,427.427673 778.392700,431.189667 774.225769,435.202148 
	C750.473572,458.073914 725.950867,480.247986 703.503601,504.348297 
	C669.651733,540.693054 648.801453,583.911377 642.562927,633.526245 
	C638.948853,662.269165 636.017029,691.101318 633.072388,719.923340 
	C631.780762,732.565186 630.427002,745.019958 623.339661,756.102295 
	C616.686035,766.506287 619.871765,777.674622 621.417664,788.646973 
	C623.667664,804.616943 625.990234,820.576721 628.382141,837.239563 
	C624.135864,835.047852 620.258301,833.114258 617.390137,838.102600 
	C615.057678,842.159119 617.364258,850.764099 621.696594,854.399597 
	C625.926514,857.949097 628.189636,854.055908 631.482178,851.423462 
	C634.352356,858.016235 637.179688,864.290833 639.822205,870.642395 
	C642.437012,876.927246 645.185486,883.183777 647.319397,889.636597 
	C656.093750,916.169617 674.247925,936.130554 693.636719,954.970215 
	C726.496277,986.898926 759.908936,1018.258118 793.068115,1049.878784 
	C798.735168,1055.282837 804.502075,1060.606934 809.821533,1066.340454 
	C812.469788,1069.194702 815.032898,1069.898071 818.568542,1068.877686 
	C821.439148,1068.049194 824.561462,1067.930786 827.288391,1066.808350 
	C830.683960,1065.410889 833.787903,1063.305054 837.011230,1061.508911 
	C839.551331,1066.287964 836.593445,1071.362549 827.027161,1076.482422 
	C845.089050,1087.912720 863.828247,1097.295654 884.806091,1100.854736 
	C899.056580,1103.272339 913.549255,1104.292358 927.948181,1105.797974 
	C955.630188,1108.692261 982.907959,1113.781982 1009.927307,1120.405640 
	C1012.524536,1121.042480 1015.479309,1120.759033 1018.181396,1120.341553 
	C1033.453857,1117.981689 1048.655396,1115.100220 1063.976929,1113.150513 
	C1070.084351,1112.373291 1075.360718,1111.168823 1079.180786,1106.079102 
	C1079.676514,1105.418457 1080.229370,1104.665527 1080.934448,1104.318115 
	C1087.838501,1100.916382 1089.375977,1094.865112 1088.769043,1087.248047 
	C1090.593506,1088.670166 1091.872070,1089.666870 1093.150757,1090.663574 
	C1093.678223,1090.533569 1094.205566,1090.403687 1094.733032,1090.273804 
	C1094.039185,1086.602783 1093.345215,1082.931763 1092.714844,1078.735107 
	C1092.778442,1078.209595 1093.082153,1077.914307 1093.082153,1077.914307 
M630.086914,875.350586 
	C628.912109,874.876343 627.737305,874.402161 627.087341,874.139832 
	C629.350464,880.898071 632.176208,887.293884 633.551636,893.987793 
	C635.091797,901.483765 639.005554,906.491455 646.364807,908.111572 
	C643.736145,902.517761 641.059082,896.652405 638.233704,890.859314 
	C635.775452,885.818726 633.149780,880.859863 630.086914,875.350586 
M616.459961,884.968262 
	C618.782715,887.816406 621.105469,890.664551 623.428162,893.512695 
	C622.497375,888.073242 621.080627,882.971130 619.273315,878.011414 
	C618.863525,876.886780 617.098267,876.256042 615.956909,875.397949 
	C614.949463,877.107605 613.337036,878.754272 613.150208,880.549438 
	C613.028320,881.719788 614.977783,883.105835 616.459961,884.968262 
z"/>
<path fill="#FEFEFE" opacity="1.000000" stroke="none" 
	d="
M1443.977661,661.978943 
	C1440.978638,672.828308 1437.104126,683.524597 1435.175049,694.560974 
	C1431.855713,713.550781 1429.747925,732.752319 1427.134399,751.865356 
	C1427.000244,752.846375 1426.893188,753.831116 1426.651245,755.819397 
	C1423.475830,744.099365 1423.551147,733.164917 1424.514648,722.221130 
	C1425.472290,711.346619 1426.753296,700.500549 1427.994507,688.668213 
	C1426.881226,689.992493 1426.488770,690.785400 1425.850708,691.159424 
	C1423.538086,692.515320 1420.180420,695.357727 1418.985352,694.650635 
	C1416.697876,693.297363 1414.168213,689.805237 1414.319702,687.360535 
	C1414.758423,680.276611 1411.395996,676.604187 1406.225708,672.294495 
	C1391.105469,659.691162 1381.615479,642.781616 1373.453247,625.158142 
	C1372.809448,623.768311 1373.556152,621.711609 1373.726196,619.971558 
	C1374.528564,611.761047 1376.249146,603.520386 1375.951660,595.351990 
	C1375.561401,584.632080 1370.055176,575.839355 1360.936157,570.163086 
	C1349.935547,563.315552 1342.435059,554.098633 1338.903564,541.693054 
	C1335.687378,530.394470 1332.333740,519.119019 1329.676025,507.685638 
	C1328.692017,503.452209 1329.517090,498.798218 1329.517090,493.533630 
	C1325.959473,495.354797 1322.723755,496.907318 1319.585815,498.637177 
	C1310.493164,503.649658 1302.546997,503.635284 1293.384399,497.043060 
	C1256.385376,470.423340 1218.982178,444.354614 1181.385254,418.582764 
	C1168.248779,409.577972 1154.162842,401.948669 1140.406738,393.867798 
	C1138.381104,392.677887 1135.803711,392.008087 1133.439331,391.880737 
	C1114.717651,390.872101 1096.723267,387.334198 1081.170654,376.150757 
	C1076.510742,372.799957 1072.208130,368.637024 1068.671387,364.118530 
	C1064.144775,358.335297 1063.593628,351.495209 1067.114380,344.840942 
	C1070.505127,338.432556 1076.120972,335.199738 1083.327759,334.929138 
	C1092.065308,334.601105 1100.968384,332.446686 1109.787231,337.345367 
	C1112.943115,327.440216 1120.330200,325.310791 1129.755615,325.690979 
	C1145.706909,326.334381 1161.829590,325.001068 1177.621826,326.785980 
	C1202.437988,329.590820 1225.475830,339.047058 1247.808105,349.939850 
	C1274.553467,362.985168 1298.339355,380.137268 1318.228516,402.387604 
	C1322.638184,407.320770 1326.687500,412.684052 1330.211060,418.284485 
	C1357.218384,461.212280 1383.974976,504.297974 1411.036743,547.191284 
	C1414.776367,553.118713 1417.109741,559.088501 1417.802856,566.076965 
	C1420.530029,593.571289 1423.820190,621.011169 1426.386841,648.519226 
	C1427.231567,657.572205 1426.519653,666.770325 1426.519653,675.902100 
	C1427.094849,676.252686 1427.669922,676.603271 1428.245117,676.953796 
	C1430.435059,674.837280 1432.669067,672.764038 1434.804321,670.593811 
	C1437.765381,667.584167 1440.652222,664.501709 1443.805664,661.738647 
	C1444.040405,662.026855 1443.977661,661.978943 1443.977661,661.978943 
z"/>
<path fill="#F6F6F6" opacity="1.000000" stroke="none" 
	d="
M972.025757,531.108765 
	C989.882690,529.387085 1004.198547,535.354004 1016.512268,547.752869 
	C1060.549072,592.094360 1104.857910,636.165833 1149.004272,680.398682 
	C1168.456299,699.888794 1170.862183,727.005493 1154.853149,747.834595 
	C1144.772949,760.949951 1131.189087,767.300537 1114.604370,767.287170 
	C1073.941650,767.254395 1033.278931,767.276489 992.616150,767.276489 
	C990.449707,767.276489 988.226807,766.957764 986.126160,767.329529 
	C974.574646,769.373596 967.299927,763.671448 961.386719,754.570190 
	C954.863281,744.529663 947.883118,734.784363 941.019897,724.967834 
	C939.718201,723.106079 938.033386,721.512268 936.261475,719.494324 
	C935.189148,720.877686 934.454163,721.942078 933.602966,722.903687 
	C930.082947,726.881165 925.182617,726.815247 921.930481,721.628296 
	C918.627869,716.360840 916.595703,710.283386 914.135437,704.506042 
	C912.468628,700.591980 911.023315,696.583618 909.355530,692.300232 
	C901.527161,700.467468 896.353394,699.736511 891.778870,689.988464 
	C889.108643,684.298462 887.322937,678.197021 885.046814,672.316528 
	C884.165466,670.039551 883.028809,667.861328 881.951477,665.513916 
	C873.960876,672.447021 871.113953,672.689819 864.146545,664.805786 
	C857.225647,656.974426 851.268738,648.290894 844.894165,639.977173 
	C842.269531,636.554077 839.552429,633.193848 837.103882,629.648560 
	C836.351013,628.558472 835.696716,626.634949 836.168396,625.658997 
	C836.752319,624.450806 838.461914,623.600159 839.862854,623.036255 
	C840.867981,622.631531 842.164429,622.947083 843.330933,622.947083 
	C876.827698,622.946472 910.324524,622.946594 943.821289,622.946594 
	C945.458191,622.946594 947.095093,622.946594 949.929871,622.946594 
	C946.856201,619.719910 944.401917,617.227600 942.039734,614.650940 
	C916.689087,586.997986 929.223877,542.726379 965.278198,532.588013 
	C967.355042,532.003906 969.490356,531.627686 972.025757,531.108765 
M948.044067,719.336243 
	C947.784241,719.421875 947.524475,719.507507 947.264648,719.593140 
	C947.461243,719.776062 947.657776,719.958984 947.870972,720.838257 
	C955.646606,732.046936 963.403259,743.268860 971.208862,754.456665 
	C973.718506,758.053894 976.802734,759.828125 981.647583,759.788208 
	C1013.143494,759.528259 1044.642578,759.654724 1076.140625,759.654724 
	C1079.733765,759.654724 1083.326904,759.654724 1086.919922,759.654724 
	C1087.042358,759.170715 1087.164673,758.686768 1087.286987,758.202759 
	C1084.989014,757.489929 1082.728882,756.343933 1080.386475,756.139221 
	C1070.300171,755.257935 1060.189819,754.652832 1050.088135,753.947144 
	C1050.103882,753.760071 1050.119507,753.572998 1050.135132,753.385986 
	C1059.280518,752.743896 1068.425903,752.101807 1077.571289,751.459717 
	C1077.706543,750.815247 1077.841919,750.170776 1077.977295,749.526367 
	C1075.098022,748.409912 1072.294800,746.663391 1069.323975,746.304504 
	C1062.554565,745.486633 1055.700073,745.387451 1048.887207,744.898560 
	C1047.732056,744.815613 1046.611694,744.245850 1045.475342,743.901062 
	C1045.556396,743.699585 1045.637573,743.498169 1045.718628,743.296692 
	C1053.078369,742.769409 1060.438110,742.242188 1067.797852,741.714905 
	C1067.958496,741.137817 1068.119141,740.560669 1068.279785,739.983521 
	C1065.630249,738.851990 1063.054565,736.998840 1060.317627,736.718506 
	C1050.456665,735.708496 1040.541382,735.228577 1030.646606,734.548401 
	C1030.625000,734.412659 1030.603271,734.276978 1030.581543,734.141235 
	C1039.768677,733.364563 1048.955933,732.587891 1058.143066,731.811218 
	C1058.320435,731.300171 1058.497925,730.789124 1058.675293,730.278137 
	C1055.896484,729.137146 1053.193237,727.289612 1050.325317,726.983215 
	C1040.411865,725.924377 1030.441162,725.402466 1020.492249,724.676086 
	C1020.494019,724.536499 1020.495789,724.396912 1020.497559,724.257324 
	C1029.789307,723.533997 1039.080933,722.810608 1048.372681,722.087219 
	C1048.419922,721.446106 1048.467041,720.804993 1048.514282,720.163818 
	C1036.839600,713.853882 1023.257385,717.708252 1011.029297,714.363953 
	C1020.159851,713.709961 1029.290405,713.055908 1038.420898,712.401917 
	C1038.465820,711.821594 1038.510742,711.241211 1038.555664,710.660889 
	C1028.976440,703.590759 1016.691650,708.583496 1006.428711,704.279785 
	C1013.885803,703.729614 1021.342896,703.179443 1028.799927,702.629272 
	C1028.854858,702.027283 1028.909912,701.425354 1028.964844,700.823364 
	C1017.809509,693.934875 1004.622375,698.195740 991.776123,695.005493 
	C1001.471008,694.219421 1010.299255,693.503662 1019.127441,692.787903 
	C1019.292419,692.248962 1019.457397,691.710083 1019.622375,691.171143 
	C1016.816589,690.048950 1014.083862,688.235291 1011.191833,687.930176 
	C1001.259705,686.882141 991.271851,686.362366 981.305237,685.641235 
	C981.296204,685.511841 981.287170,685.382385 981.278137,685.252991 
	C990.624939,684.519165 999.971802,683.785339 1009.318665,683.051514 
	C1009.382996,682.510193 1009.447388,681.968811 1009.511719,681.427429 
	C998.097473,674.018311 984.201599,679.244568 972.449646,675.298828 
	C981.253723,674.665405 990.404663,674.006958 999.555603,673.348572 
	C999.603210,672.737061 999.650879,672.125610 999.698486,671.514099 
	C988.699707,664.439209 975.255676,669.494568 963.346375,665.442200 
	C972.337036,664.829407 981.008789,664.238403 989.680542,663.647400 
	C989.860168,663.095398 990.039795,662.543457 990.219482,661.991516 
	C987.599854,660.811951 985.059937,658.876282 982.346252,658.590454 
	C973.103577,657.616699 963.799683,657.224731 954.519104,656.610657 
	C954.490173,656.367004 954.461182,656.123291 954.432251,655.879639 
	C963.004456,655.156067 971.576660,654.432434 980.148865,653.708862 
	C980.194031,653.139648 980.239197,652.570496 980.284363,652.001282 
	C968.643433,645.434387 955.171082,649.133850 942.282532,646.252625 
	C951.968506,645.476196 961.136841,644.741272 970.584595,643.983948 
	C968.437012,640.125671 965.650146,638.992676 961.793518,638.824524 
	C952.099243,638.401733 942.426514,637.482544 932.745178,636.762390 
	C932.751282,636.608459 932.757385,636.454590 932.763428,636.300659 
	C942.010437,635.644897 951.257385,634.989075 960.504333,634.333252 
	C960.606750,633.779114 960.709106,633.224976 960.811523,632.670776 
	C958.714478,632.056763 956.619141,630.914368 954.520142,630.907532 
	C920.355957,630.796265 886.191223,630.825439 852.026672,630.845154 
	C850.987732,630.845764 849.948914,631.086609 847.802063,631.352844 
	C856.291016,642.428284 864.201294,652.748596 872.111511,663.068970 
	C872.323669,662.397827 872.535889,661.726685 872.748047,661.055542 
	C875.959229,659.612793 879.479614,656.482483 882.330750,657.004822 
	C899.203979,660.096313 915.921814,664.035522 932.691956,667.689575 
	C932.596680,668.190979 932.501404,668.692383 932.406128,669.193787 
	C918.664978,667.606384 904.923889,666.018982 890.403992,664.341553 
	C893.810791,673.494019 896.799194,681.522522 900.373169,691.124390 
	C903.984009,682.400452 909.849060,683.512390 915.731262,684.862122 
	C925.449524,687.092102 935.166565,689.330811 944.856873,691.678406 
	C949.583069,692.823242 954.247742,694.221985 958.940247,695.505859 
	C958.875122,695.849854 958.810059,696.193848 958.744995,696.537903 
	C945.271667,694.908691 931.798279,693.279541 917.646423,691.568359 
	C921.118774,700.766052 924.170715,708.850037 927.453857,717.546509 
	C932.985229,710.690979 933.034241,710.432678 940.506226,711.850281 
	C949.807495,713.614929 959.040649,715.762451 968.258057,717.935913 
	C973.461487,719.162842 978.574219,720.773987 983.727844,722.212097 
	C983.652954,722.525513 983.578064,722.838928 983.503235,723.152344 
	C971.777832,721.997437 960.052490,720.842468 948.044067,719.336243 
M961.410339,623.089661 
	C996.091980,657.785400 1030.773560,692.481201 1066.350464,728.072571 
	C1063.529053,709.492981 1067.717651,694.271851 1080.176514,681.873474 
	C1092.500732,669.609192 1107.695801,665.626648 1125.123413,668.138245 
	C1124.531372,667.200562 1124.408203,666.896118 1124.194336,666.682190 
	C1085.450562,627.918152 1046.824097,589.035645 1007.891541,550.461975 
	C991.506592,534.228210 965.040710,534.718018 948.928162,550.837646 
	C932.687500,567.085571 932.354675,592.919006 948.245911,609.812683 
	C952.353271,614.179077 956.682861,618.336304 961.410339,623.089661 
M1157.423462,716.546936 
	C1157.358398,715.716492 1157.309448,714.884460 1157.225830,714.055908 
	C1155.454224,696.494263 1146.335083,684.165405 1129.945068,677.983521 
	C1113.680298,671.848877 1098.590820,675.137451 1086.123535,687.156494 
	C1073.631836,699.199097 1070.136841,714.168213 1075.357300,730.691650 
	C1081.566040,750.343201 1100.902100,761.978271 1122.003174,758.929199 
	C1142.070312,756.029602 1157.542603,738.262756 1157.423462,716.546936 
z"/>
<path fill="#FBFBFB" opacity="1.000000" stroke="none" 
	d="
M884.161255,888.263977 
	C882.570251,888.198059 881.423584,888.132141 880.122314,888.057312 
	C880.122314,853.138611 880.122314,818.380493 880.122314,783.288818 
	C883.817078,783.288818 887.539673,783.288818 891.692749,783.288818 
	C891.692749,796.301575 891.692749,809.362854 891.692749,823.678833 
	C897.132507,817.029114 902.771240,812.748657 910.417419,811.917908 
	C924.956970,810.338257 936.760498,816.617920 942.788452,830.030212 
	C948.791138,843.386292 948.830688,857.043457 943.188904,870.677246 
	C933.693970,893.622314 904.496887,894.981750 892.102661,878.077881 
	C892.102661,881.827454 892.102661,884.828796 892.102661,888.263977 
	C889.217896,888.263977 886.911743,888.263977 884.161255,888.263977 
M914.401306,878.862610 
	C923.860291,878.259766 929.682373,872.746948 932.752502,864.359619 
	C936.243774,854.821716 935.936157,845.083923 932.122192,835.641968 
	C928.663147,827.079102 921.246155,822.067871 912.952881,822.260254 
	C904.530701,822.455627 895.793640,828.340515 893.922852,837.167297 
	C892.345459,844.609985 892.000610,852.680908 893.009521,860.219604 
	C894.572266,871.896240 901.713501,877.579285 914.401306,878.862610 
z"/>
<path fill="#F8F8F8" opacity="1.000000" stroke="none" 
	d="
M1024.194580,850.453491 
	C1024.001953,852.330994 1023.830261,853.776978 1023.612732,855.609253 
	C1006.408997,855.609253 989.457520,855.609253 972.505737,855.609253 
	C972.804016,872.191223 990.578186,886.152039 1019.300659,874.295105 
	C1019.433594,874.553894 1019.677917,874.811401 1019.685303,875.075500 
	C1019.979065,885.587646 1019.572937,886.750854 1008.976685,887.882812 
	C1001.333923,888.699158 993.167053,888.996765 985.805237,887.193481 
	C967.223267,882.641663 957.155151,864.283875 960.451416,843.236938 
	C963.042175,826.694397 971.740356,816.049988 985.271606,812.862915 
	C1006.125366,807.951233 1022.728577,820.192993 1024.092529,841.533264 
	C1024.272827,844.353943 1024.181274,847.191956 1024.194580,850.453491 
M990.500854,845.817627 
	C997.760010,845.817627 1005.019165,845.817627 1012.192749,845.817627 
	C1013.976013,832.256653 1006.624329,822.634399 994.589661,822.128906 
	C982.155945,821.606689 972.199341,832.203369 972.610901,845.817627 
	C978.233765,845.817627 983.867859,845.817627 990.500854,845.817627 
z"/>
<path fill="#F8F8F8" opacity="1.000000" stroke="none" 
	d="
M1081.999512,855.589111 
	C1071.197388,855.589050 1060.895142,855.589050 1050.605835,855.589050 
	C1049.994873,875.473999 1073.332397,884.713257 1097.478271,873.838257 
	C1097.478271,877.015442 1097.625000,879.919006 1097.391968,882.791748 
	C1097.318848,883.692627 1096.409302,884.823242 1095.569824,885.320801 
	C1075.651855,897.124390 1045.760376,885.464722 1039.532349,863.329346 
	C1036.716431,853.321350 1037.117065,843.219299 1040.703857,833.409607 
	C1047.058105,816.030884 1064.922485,807.556335 1082.431519,813.599487 
	C1094.752197,817.851868 1100.263184,827.456482 1101.782227,839.646973 
	C1102.409912,844.684387 1101.886230,849.865295 1101.886230,855.589111 
	C1095.059692,855.589111 1088.779419,855.589111 1081.999512,855.589111 
M1054.560913,831.206116 
	C1052.793091,835.838257 1051.025391,840.470459 1049.125122,845.449707 
	C1063.730713,845.449707 1076.929443,845.449707 1090.089111,845.449707 
	C1091.322876,830.662231 1083.129761,821.229614 1070.140137,822.157043 
	C1063.800903,822.609619 1058.774536,825.523132 1054.560913,831.206116 
z"/>
<path fill="#F9F9F9" opacity="1.000000" stroke="none" 
	d="
M1261.019043,873.999268 
	C1251.261841,887.754089 1236.328125,892.866699 1220.423706,888.163391 
	C1206.347168,884.000671 1196.881226,870.999084 1196.330566,853.845703 
	C1196.141968,847.965210 1196.877075,841.774475 1198.611328,836.164978 
	C1204.041870,818.601624 1219.103394,809.655029 1237.817749,812.107849 
	C1253.784912,814.200684 1265.487793,827.486511 1266.906006,845.322449 
	C1267.698608,855.288879 1266.630859,864.939697 1261.019043,873.999268 
M1247.832153,872.289124 
	C1256.228149,861.390503 1256.660645,849.320679 1252.520508,836.873291 
	C1249.431152,827.584900 1242.638794,822.577209 1232.749268,822.162048 
	C1223.078857,821.756042 1216.081055,826.086792 1212.012573,834.758850 
	C1207.171875,845.076843 1206.891479,855.689636 1211.762695,866.033752 
	C1218.719238,880.806396 1235.248169,883.836304 1247.832153,872.289124 
z"/>
<path fill="#F9F9F9" opacity="1.000000" stroke="none" 
	d="
M811.408691,826.430725 
	C810.208740,827.081787 809.348633,827.513000 808.483521,827.946716 
	C808.215271,827.498474 807.944885,827.254578 807.935669,827.001282 
	C807.512695,815.353699 807.772827,814.557068 819.482910,812.655823 
	C825.639221,811.656250 832.175598,811.519470 838.343628,812.388855 
	C849.881775,814.015198 857.443176,821.777161 857.924622,833.622009 
	C858.654297,851.571655 858.115356,869.572815 858.115356,887.911621 
	C854.819702,887.911621 851.080444,887.911621 847.016846,887.911621 
	C847.016846,885.712219 847.016846,883.443420 847.016846,880.241455 
	C838.800903,889.128174 829.137573,890.473694 818.785156,888.154236 
	C809.320129,886.033569 803.388428,878.875488 802.306641,869.169739 
	C801.277100,859.931458 805.598022,851.505066 814.683594,847.919067 
	C820.420898,845.654663 826.854431,844.935547 833.054688,844.136597 
	C837.456421,843.569458 841.990173,844.026489 846.674927,844.026489 
	C846.674927,841.252075 846.929138,838.785461 846.629822,836.387939 
	C845.474304,827.132385 840.921143,822.232849 831.592468,822.415100 
	C824.955688,822.544678 818.361694,824.867065 811.408691,826.430725 
M846.921814,860.455444 
	C846.921814,858.311096 846.921814,856.166748 846.921814,852.808228 
	C838.842224,853.572144 831.019226,853.677307 823.491882,855.222656 
	C817.382812,856.476868 814.519714,861.637024 814.830383,867.566589 
	C815.133362,873.347900 818.625977,877.426575 824.424683,878.770691 
	C837.186707,881.728882 846.643372,874.414307 846.921814,860.455444 
z"/>
<path fill="#F9F9F9" opacity="1.000000" stroke="none" 
	d="
M1120.066040,819.180664 
	C1120.066040,816.883301 1120.066040,815.061035 1120.066040,813.028931 
	C1124.074951,813.028931 1127.843506,813.028931 1131.859009,813.028931 
	C1131.859009,816.713318 1131.859009,820.172363 1131.859009,824.431274 
	C1134.121826,821.849182 1135.662354,819.544250 1137.708984,817.851379 
	C1146.209106,810.820251 1155.961182,810.063904 1165.885986,813.692200 
	C1175.213989,817.102417 1179.480713,824.897583 1179.685059,834.372192 
	C1180.068726,852.168762 1179.795532,869.979553 1179.795532,888.026184 
	C1175.845947,888.026184 1172.069336,888.026184 1167.988770,888.026184 
	C1167.988770,873.432251 1167.988770,858.966980 1167.988770,844.501648 
	C1167.988770,843.336121 1167.995239,842.170593 1167.987427,841.005127 
	C1167.917603,830.662598 1164.398193,824.759521 1157.223389,822.944824 
	C1148.288330,820.684937 1138.827148,824.843506 1134.868774,833.661011 
	C1133.028076,837.761169 1132.124756,842.575500 1132.002441,847.098694 
	C1131.638306,860.568909 1131.871704,874.055237 1131.871704,887.901733 
	C1127.975586,887.901733 1124.257690,887.901733 1120.066040,887.901733 
	C1120.066040,865.165466 1120.066040,842.410645 1120.066040,819.180664 
z"/>
<path fill="#FCFCFC" opacity="1.000000" stroke="none" 
	d="
M733.903381,798.020752 
	C733.903381,794.541138 733.903381,791.557495 733.903381,787.916870 
	C743.127380,787.916870 752.206360,787.916809 761.285339,787.916809 
	C770.395264,787.916809 779.505188,787.916870 788.809021,787.916870 
	C788.809021,791.560913 788.809021,794.804138 788.809021,798.431519 
	C774.536560,798.431519 760.453613,798.431519 746.171509,798.431519 
	C746.171509,810.397522 746.171509,821.980225 746.171509,834.027893 
	C758.682861,834.027893 771.069153,834.027893 783.662109,834.027893 
	C783.662109,837.732544 783.662109,840.972839 783.662109,844.536011 
	C771.185913,844.536011 758.918579,844.536011 746.223999,844.536011 
	C746.223999,859.080200 746.223999,873.314941 746.223999,887.903076 
	C741.936340,887.903076 738.067688,887.903076 733.903381,887.903076 
	C733.903381,858.079529 733.903381,828.298096 733.903381,798.020752 
z"/>
<path fill="#E5E5E5" opacity="1.000000" stroke="none" 
	d="
M733.862305,931.983154 
	C734.407471,919.634705 741.631958,910.856445 752.889526,908.407288 
	C762.974731,906.213196 773.866455,911.646729 778.666138,921.266479 
	C783.890747,931.737671 781.122437,942.001282 769.779175,952.216309 
	C774.455811,952.216309 778.460815,952.216309 782.465759,952.216309 
	C782.565735,952.704102 782.665710,953.191895 782.765686,953.679626 
	C781.830078,954.082153 780.902466,954.812378 779.957520,954.835632 
	C771.964294,955.032471 763.962219,955.338623 755.973633,955.150879 
	C743.957397,954.868591 734.652771,945.122681 733.862305,931.983154 
M747.862793,913.076477 
	C738.283691,919.286621 734.487183,928.582092 737.635986,938.115906 
	C741.302612,949.217590 753.093628,955.254211 763.884888,951.554504 
	C775.274536,947.649597 781.192749,935.205078 776.889465,924.209045 
	C772.411072,912.765564 760.430054,907.929443 747.862793,913.076477 
z"/>
<path fill="#E5E5E5" opacity="1.000000" stroke="none" 
	d="
M1073.862427,908.578003 
	C1076.803589,908.578064 1079.267090,908.578064 1081.721069,908.578064 
	C1081.721069,912.252075 1081.721069,915.561462 1081.721069,918.870850 
	C1081.255737,918.917297 1080.790283,918.963745 1080.324951,919.010193 
	C1079.982544,916.643738 1079.640259,914.277222 1079.240601,911.514587 
	C1072.318970,911.514587 1065.263794,911.514587 1057.943604,911.514587 
	C1057.943604,917.403870 1057.943604,923.366577 1057.943604,930.127686 
	C1065.089111,930.127686 1072.398682,930.127686 1079.708374,930.127686 
	C1079.761108,930.878906 1079.813843,931.630066 1079.866577,932.381287 
	C1076.464600,932.567261 1073.064453,932.833862 1069.659912,932.917786 
	C1065.859009,933.011475 1062.053955,932.939270 1057.969604,932.939270 
	C1057.969604,939.323242 1057.969604,945.388123 1057.969604,951.829163 
	C1059.649780,951.976501 1061.375122,952.127869 1063.186768,952.286804 
	C1061.834473,955.538757 1053.482300,956.000061 1049.537964,952.919739 
	C1051.508423,952.388428 1053.101929,951.958801 1054.673950,951.534973 
	C1054.673950,938.199890 1054.673950,924.902161 1054.673950,911.577148 
	C1052.998657,911.228149 1051.482666,910.912354 1049.966675,910.596558 
	C1049.947632,910.147095 1049.928467,909.697632 1049.909302,909.248230 
	C1053.563843,907.850891 1057.573730,908.768188 1061.393677,908.613892 
	C1065.384766,908.452759 1069.387207,908.577942 1073.862427,908.578003 
z"/>
<path fill="#DFDFDF" opacity="1.000000" stroke="none" 
	d="
M1146.349609,938.993713 
	C1146.349731,928.518494 1146.349731,918.542603 1146.349731,908.278137 
	C1144.712524,908.063660 1143.334351,907.883118 1141.956055,907.702637 
	C1141.856567,907.111450 1141.756958,906.520325 1141.657471,905.929138 
	C1143.909058,905.551270 1146.160522,905.173340 1149.059326,904.686768 
	C1149.059326,914.564148 1149.059326,923.802734 1149.059326,931.921021 
	C1153.980591,931.231628 1158.576538,929.899841 1163.049194,930.231323 
	C1165.548706,930.416504 1168.376953,932.941223 1170.122559,935.150208 
	C1174.047852,940.117554 1172.972656,947.657593 1168.310913,951.911194 
	C1163.226196,956.550781 1156.410767,956.263245 1149.494995,950.879150 
	C1149.203369,952.187439 1148.947388,953.335632 1148.576050,955.001221 
	C1146.256714,954.804932 1143.889160,954.604553 1141.521606,954.404175 
	C1141.495117,953.883118 1141.468628,953.362122 1141.442139,952.841125 
	C1142.997803,952.404419 1144.553589,951.967712 1146.349609,951.463501 
	C1146.349609,947.448364 1146.349609,943.470703 1146.349609,938.993713 
M1168.858765,938.340149 
	C1166.479126,933.638977 1162.636475,931.505737 1157.468872,932.422363 
	C1151.897339,933.410706 1148.300903,938.937866 1149.452148,944.239868 
	C1150.709839,950.031982 1155.934082,953.377747 1161.776489,952.132690 
	C1167.571899,950.897705 1170.351196,945.943970 1168.858765,938.340149 
z"/>
<path fill="#E7E7E7" opacity="1.000000" stroke="none" 
	d="
M992.711914,944.551208 
	C994.614014,940.638428 996.356384,937.067383 998.063171,933.569153 
	C996.811157,932.775085 995.681641,932.058716 994.552063,931.342346 
	C994.688599,930.986572 994.825134,930.630859 994.961609,930.275146 
	C998.661560,930.275146 1002.361511,930.275146 1006.437195,930.275146 
	C1006.177246,931.108337 1005.878235,932.430115 1005.753601,932.413818 
	C1000.697571,931.755371 1000.005676,935.958313 998.461304,939.017517 
	C993.681274,948.486023 989.025879,958.017456 984.169983,967.831726 
	C985.579590,968.471558 986.844910,969.045898 988.110229,969.620300 
	C988.057373,969.957947 988.004578,970.295654 987.951721,970.633301 
	C983.665649,970.633301 979.379578,970.633301 974.898071,970.633301 
	C975.139954,969.895142 975.183716,969.123352 975.456604,969.031372 
	C977.367126,968.387329 980.246216,968.495300 981.093262,967.219360 
	C983.544312,963.527405 985.297302,959.345154 987.043457,955.236084 
	C987.376465,954.452393 986.529968,953.073425 986.046631,952.054932 
	C984.625305,949.059998 983.302551,945.993713 981.593262,943.165649 
	C978.839233,938.608948 978.651978,931.762817 970.446960,931.872925 
	C970.708435,931.432739 970.969849,930.992554 971.231323,930.552368 
	C975.299500,930.552368 979.367676,930.552368 984.909790,930.552368 
	C982.680115,931.933350 981.427673,932.709045 979.962646,933.616455 
	C982.808289,939.386414 985.716492,945.283142 989.000854,951.942627 
	C990.415527,949.134399 991.483826,947.013611 992.711914,944.551208 
z"/>
<path fill="#E9E9E9" opacity="1.000000" stroke="none" 
	d="
M1115.805420,931.138916 
	C1117.147339,932.181030 1118.153442,933.034363 1119.447510,934.132019 
	C1119.955566,932.626709 1120.430420,931.219543 1120.905273,929.812439 
	C1121.334839,929.868103 1121.764526,929.923767 1122.194092,929.979431 
	C1122.194092,937.139465 1122.194092,944.299561 1122.194092,951.528503 
	C1124.279663,951.968201 1125.768921,952.282227 1127.258179,952.596191 
	C1127.306396,953.165833 1127.354736,953.735474 1127.403076,954.305115 
	C1125.189697,954.566101 1122.976318,954.827148 1120.449341,955.125183 
	C1120.158813,953.533447 1119.938110,952.324951 1119.808838,951.616821 
	C1105.980957,957.718567 1095.869385,956.910217 1097.383667,938.311890 
	C1097.995605,930.795044 1107.242798,927.795532 1115.805420,931.138916 
M1117.342896,948.825562 
	C1120.390625,944.754089 1120.632568,940.494507 1117.690308,936.368042 
	C1115.275024,932.980713 1111.718506,931.575073 1107.610840,932.351257 
	C1103.064697,933.210327 1100.201294,936.121887 1099.399780,940.655518 
	C1098.633423,944.991028 1100.256592,948.635986 1104.028198,950.884766 
	C1108.535522,953.572266 1112.918579,952.957825 1117.342896,948.825562 
z"/>
<path fill="#E7E7E7" opacity="1.000000" stroke="none" 
	d="
M844.470947,934.655640 
	C851.232117,927.950500 857.141663,927.779724 864.845520,933.806396 
	C865.419556,932.470337 865.989746,931.143250 866.559937,929.816101 
	C866.915100,929.876648 867.270203,929.937195 867.625305,929.997681 
	C867.625305,937.132141 867.625305,944.266602 867.625305,951.680115 
	C869.638794,951.969177 871.172668,952.189392 872.706543,952.409668 
	C872.811584,952.948120 872.916626,953.486572 873.021606,954.025024 
	C871.380798,954.310547 869.613770,955.103394 868.135498,954.735657 
	C866.719910,954.383484 865.604248,952.825867 864.152100,951.629456 
	C857.719971,956.222290 851.443176,956.517334 846.326538,952.036255 
	C841.314270,947.646484 840.610901,941.924561 844.470947,934.655640 
M855.417847,952.453918 
	C860.653625,951.891174 864.082825,949.141357 864.920532,943.887878 
	C865.680664,939.121094 863.702698,935.394775 859.360596,933.246826 
	C855.431885,931.303467 851.582764,931.858826 848.213623,934.653381 
	C844.926453,937.380066 844.107178,941.109802 845.131592,945.025635 
	C846.357178,949.710388 849.786560,952.067139 855.417847,952.453918 
z"/>
<path fill="#E7E7E7" opacity="1.000000" stroke="none" 
	d="
M799.437744,929.953003 
	C801.164001,929.952881 802.480286,929.952881 804.363892,929.952881 
	C804.363892,934.944336 804.399170,939.697754 804.352966,944.450256 
	C804.314453,948.410583 804.913330,951.910950 809.812683,952.403198 
	C814.629944,952.887207 819.521484,949.388733 819.936279,944.815125 
	C820.278809,941.037659 820.006287,937.204407 820.006287,933.444824 
	C818.271240,932.805481 816.667664,932.214600 815.064148,931.623718 
	C815.135193,931.226196 815.206299,930.828674 815.277344,930.431152 
	C817.617004,930.431152 819.956665,930.431152 822.770386,930.431152 
	C822.770386,937.233154 822.770386,944.451538 822.770386,951.570557 
	C824.767700,952.180176 826.315186,952.652466 827.862671,953.124756 
	C827.832764,953.578186 827.802917,954.031555 827.773071,954.484924 
	C825.644043,954.655090 823.515076,954.825195 821.165405,955.013000 
	C820.691406,953.446899 820.289734,952.119751 820.108459,951.520935 
	C816.668152,952.787598 813.447083,954.634888 810.044678,955.072571 
	C804.833557,955.742798 801.920105,952.836365 801.721802,947.573059 
	C801.546936,942.933716 801.685181,938.282532 801.685181,933.789185 
	C799.945312,932.853760 798.392395,932.018860 796.839478,931.183960 
	C797.568909,930.773682 798.298401,930.363403 799.437744,929.953003 
z"/>
<path fill="#F1F1F1" opacity="1.000000" stroke="none" 
	d="
M946.804626,920.239502 
	C946.804626,917.879456 946.804626,915.982666 946.804626,914.085815 
	C947.482849,914.026062 948.161072,913.966309 948.839355,913.906555 
	C950.315308,918.882874 948.959961,924.263550 949.719849,929.768311 
	C952.027649,929.890869 954.437195,930.018921 956.846802,930.146912 
	C957.000427,930.656616 957.154053,931.166260 957.307617,931.675964 
	C954.920410,932.230469 952.533203,932.784973 949.801880,933.419373 
	C949.801880,939.203064 949.801880,945.266418 949.801880,951.676819 
	C951.322571,951.919495 953.044495,952.194275 954.766479,952.469055 
	C954.859558,952.994019 954.952698,953.518982 955.045837,954.044006 
	C952.463135,954.398804 949.880432,954.753601 946.822205,955.173706 
	C946.822205,947.466553 946.822205,940.389343 946.822205,933.452576 
	C944.536560,932.823792 942.642517,932.302734 940.748474,931.781677 
	C940.830933,931.313110 940.913391,930.844482 940.995850,930.375916 
	C942.846741,930.135254 944.697571,929.894653 946.804626,929.620667 
	C946.804626,926.618652 946.804626,923.660706 946.804626,920.239502 
z"/>
<path fill="#DFDFDF" opacity="1.000000" stroke="none" 
	d="
M899.805054,953.083008 
	C895.722900,954.166992 891.558167,954.818787 887.393372,955.470520 
	C887.185059,954.743896 886.976746,954.017273 886.768433,953.290588 
	C888.301025,952.700623 889.833618,952.110596 891.688721,951.396484 
	C891.688721,937.367615 891.688721,922.945984 891.688721,908.342224 
	C890.179077,908.057678 888.672058,907.773560 886.698364,907.401489 
	C888.719238,903.545227 891.749695,905.735168 894.607849,905.019958 
	C894.607849,920.738892 894.607849,936.120422 894.607849,951.549744 
	C896.622253,951.983398 898.172363,952.317078 899.805054,953.083008 
z"/>
<path fill="#E9E9E9" opacity="1.000000" stroke="none" 
	d="
M1251.153076,932.084045 
	C1255.265991,931.263977 1259.163696,929.850220 1262.862793,930.254333 
	C1267.595825,930.771545 1268.396118,933.870911 1265.992188,938.875427 
	C1265.697632,938.766357 1265.164673,938.689392 1265.144287,938.541870 
	C1264.736938,935.583740 1264.558350,932.538513 1260.489868,932.236145 
	C1256.356445,931.928833 1252.235718,932.945251 1250.752319,936.728699 
	C1249.503540,939.913391 1249.322021,944.215027 1250.400513,947.443604 
	C1251.865112,951.828491 1257.362183,953.306396 1262.309937,951.922729 
	C1263.636597,951.551758 1265.005249,951.331055 1266.437256,951.450989 
	C1261.833008,956.585266 1254.455200,956.274719 1249.570312,951.226562 
	C1244.309692,945.790161 1244.812866,938.344482 1251.153076,932.084045 
z"/>
<path fill="#DFDFDF" opacity="1.000000" stroke="none" 
	d="
M1197.173096,932.503174 
	C1199.731323,931.231567 1202.012207,930.242188 1204.292969,929.252808 
	C1204.470703,929.606750 1204.648315,929.960693 1204.826050,930.314636 
	C1201.644043,932.913574 1197.173340,934.916809 1195.623413,938.270142 
	C1193.890991,942.017517 1194.808228,946.989746 1194.565552,951.554749 
	C1196.474121,951.966553 1197.961670,952.287537 1199.610596,952.643372 
	C1197.181396,955.787292 1188.962158,955.799927 1186.525269,952.494873 
	C1188.309448,952.249878 1189.829468,952.041199 1191.615112,951.796021 
	C1191.615112,945.616516 1191.615112,939.387329 1191.615112,933.364624 
	C1189.912964,932.740417 1188.333130,932.161011 1186.753296,931.581665 
	C1186.857056,931.169128 1186.960938,930.756592 1187.064819,930.344055 
	C1189.252319,930.344055 1191.439941,930.344055 1193.830444,930.344055 
	C1194.083618,931.510315 1194.382690,932.888000 1194.757812,934.615906 
	C1195.674805,933.830750 1196.285278,933.308105 1197.173096,932.503174 
z"/>
<path fill="#DFDFDF" opacity="1.000000" stroke="none" 
	d="
M918.989990,947.815186 
	C918.989990,942.697754 918.989990,938.057861 918.989990,933.487610 
	C917.097168,932.818604 915.411011,932.222717 913.724792,931.626770 
	C913.822144,931.203552 913.919495,930.780396 914.016846,930.357178 
	C916.498047,930.357178 918.979309,930.357178 921.852173,930.357178 
	C921.852173,937.370056 921.852173,944.452087 921.852173,951.667542 
	C923.718079,951.986877 925.246643,952.248535 926.881714,952.528381 
	C924.827820,955.900024 915.975159,955.919067 913.914185,952.502197 
	C915.575256,952.237610 917.109802,951.993225 918.989929,951.693787 
	C918.989929,950.564392 918.989929,949.428589 918.989990,947.815186 
z"/>
<path fill="#DFDFDF" opacity="1.000000" stroke="none" 
	d="
M1226.944946,948.754761 
	C1225.761353,953.901611 1231.427368,950.585449 1231.873779,953.380127 
	C1228.190308,955.955933 1220.480713,955.495850 1218.993286,952.423096 
	C1220.621094,952.198120 1222.170654,951.983948 1223.832275,951.754211 
	C1223.832275,945.462830 1223.832275,939.354553 1223.832275,933.483215 
	C1221.978271,932.791809 1220.326782,932.175964 1218.675415,931.560120 
	C1218.794434,931.129272 1218.913452,930.698486 1219.032349,930.267639 
	C1221.430786,930.267639 1223.829102,930.267639 1226.944702,930.267639 
	C1226.944702,936.144653 1226.944702,942.214050 1226.944946,948.754761 
z"/>
<path fill="#FEFEFE" opacity="1.000000" stroke="none" 
	d="
M1444.074951,662.046143 
	C1444.113281,661.830261 1444.117188,661.595154 1444.121216,661.359985 
	C1444.226685,661.543030 1444.332031,661.726074 1444.207520,661.944031 
	C1443.977661,661.978943 1444.040405,662.026855 1444.074951,662.046143 
z"/>
<path fill="#FEFEFE" opacity="1.000000" stroke="none" 
	d="
M1092.616211,1078.345703 
	C1092.365479,1078.068848 1092.276978,1077.655762 1092.188599,1077.242676 
	C1092.444214,1077.270996 1092.699951,1077.299316 1093.018799,1077.620850 
	C1093.082153,1077.914307 1092.778442,1078.209595 1092.616211,1078.345703 
z"/>
<path fill="#131313" opacity="1.000000" stroke="none" 
	d="
M630.342529,875.607727 
	C633.149780,880.859863 635.775452,885.818726 638.233704,890.859314 
	C641.059082,896.652405 643.736145,902.517761 646.364807,908.111572 
	C639.005554,906.491455 635.091797,901.483765 633.551636,893.987793 
	C632.176208,887.293884 629.350464,880.898071 627.087341,874.139832 
	C627.737305,874.402161 628.912109,874.876343 630.342529,875.607727 
z"/>
<path fill="#131313" opacity="1.000000" stroke="none" 
	d="
M616.229614,884.681763 
	C614.977783,883.105835 613.028320,881.719788 613.150208,880.549438 
	C613.337036,878.754272 614.949463,877.107605 615.956909,875.397949 
	C617.098267,876.256042 618.863525,876.886780 619.273315,878.011414 
	C621.080627,882.971130 622.497375,888.073242 623.428162,893.512695 
	C621.105469,890.664551 618.782715,887.816406 616.229614,884.681763 
z"/>
<path fill="#010101" opacity="1.000000" stroke="none" 
	d="
M961.160339,622.839661 
	C956.682861,618.336304 952.353271,614.179077 948.245911,609.812683 
	C932.354675,592.919006 932.687500,567.085571 948.928162,550.837646 
	C965.040710,534.718018 991.506592,534.228210 1007.891541,550.461975 
	C1046.824097,589.035645 1085.450562,627.918152 1124.194336,666.682190 
	C1124.408203,666.896118 1124.531372,667.200562 1125.123413,668.138245 
	C1107.695801,665.626648 1092.500732,669.609192 1080.176514,681.873474 
	C1067.717651,694.271851 1063.529053,709.492981 1066.350464,728.072571 
	C1030.773560,692.481201 996.091980,657.785400 961.160339,622.839661 
z"/>
<path fill="#050505" opacity="1.000000" stroke="none" 
	d="
M948.327148,719.687561 
	C960.052490,720.842468 971.777832,721.997437 983.503235,723.152344 
	C983.578064,722.838928 983.652954,722.525513 983.727844,722.212097 
	C978.574219,720.773987 973.461487,719.162842 968.258057,717.935913 
	C959.040649,715.762451 949.807495,713.614929 940.506226,711.850281 
	C933.034241,710.432678 932.985229,710.690979 927.453857,717.546509 
	C924.170715,708.850037 921.118774,700.766052 917.646423,691.568359 
	C931.798279,693.279541 945.271667,694.908691 958.744995,696.537903 
	C958.810059,696.193848 958.875122,695.849854 958.940247,695.505859 
	C954.247742,694.221985 949.583069,692.823242 944.856873,691.678406 
	C935.166565,689.330811 925.449524,687.092102 915.731262,684.862122 
	C909.849060,683.512390 903.984009,682.400452 900.373169,691.124390 
	C896.799194,681.522522 893.810791,673.494019 890.403992,664.341553 
	C904.923889,666.018982 918.664978,667.606384 932.406128,669.193787 
	C932.501404,668.692383 932.596680,668.190979 932.691956,667.689575 
	C915.921814,664.035522 899.203979,660.096313 882.330750,657.004822 
	C879.479614,656.482483 875.959229,659.612793 872.748047,661.055542 
	C872.535889,661.726685 872.323669,662.397827 872.111511,663.068970 
	C864.201294,652.748596 856.291016,642.428284 847.802063,631.352844 
	C849.948914,631.086609 850.987732,630.845764 852.026672,630.845154 
	C886.191223,630.825439 920.355957,630.796265 954.520142,630.907532 
	C956.619141,630.914368 958.714478,632.056763 960.811523,632.670776 
	C960.709106,633.224976 960.606750,633.779114 960.504333,634.333252 
	C951.257385,634.989075 942.010437,635.644897 932.763428,636.300659 
	C932.757385,636.454590 932.751282,636.608459 932.745178,636.762390 
	C942.426514,637.482544 952.099243,638.401733 961.793518,638.824524 
	C965.650146,638.992676 968.437012,640.125671 970.584595,643.983948 
	C961.136841,644.741272 951.968506,645.476196 942.282532,646.252625 
	C955.171082,649.133850 968.643433,645.434387 980.284363,652.001282 
	C980.239197,652.570496 980.194031,653.139648 980.148865,653.708862 
	C971.576660,654.432434 963.004456,655.156067 954.432251,655.879639 
	C954.461182,656.123291 954.490173,656.367004 954.519104,656.610657 
	C963.799683,657.224731 973.103577,657.616699 982.346252,658.590454 
	C985.059937,658.876282 987.599854,660.811951 990.219482,661.991516 
	C990.039795,662.543457 989.860168,663.095398 989.680542,663.647400 
	C981.008789,664.238403 972.337036,664.829407 963.346375,665.442200 
	C975.255676,669.494568 988.699707,664.439209 999.698486,671.514099 
	C999.650879,672.125610 999.603210,672.737061 999.555603,673.348572 
	C990.404663,674.006958 981.253723,674.665405 972.449646,675.298828 
	C984.201599,679.244568 998.097473,674.018311 1009.511719,681.427429 
	C1009.447388,681.968811 1009.382996,682.510193 1009.318665,683.051514 
	C999.971802,683.785339 990.624939,684.519165 981.278137,685.252991 
	C981.287170,685.382385 981.296204,685.511841 981.305237,685.641235 
	C991.271851,686.362366 1001.259705,686.882141 1011.191833,687.930176 
	C1014.083862,688.235291 1016.816589,690.048950 1019.622375,691.171143 
	C1019.457397,691.710083 1019.292419,692.248962 1019.127441,692.787903 
	C1010.299255,693.503662 1001.471008,694.219421 991.776123,695.005493 
	C1004.622375,698.195740 1017.809509,693.934875 1028.964844,700.823364 
	C1028.909912,701.425354 1028.854858,702.027283 1028.799927,702.629272 
	C1021.342896,703.179443 1013.885803,703.729614 1006.428711,704.279785 
	C1016.691650,708.583496 1028.976440,703.590759 1038.555664,710.660889 
	C1038.510742,711.241211 1038.465820,711.821594 1038.420898,712.401917 
	C1029.290405,713.055908 1020.159851,713.709961 1011.029053,714.356750 
	C1023.257385,717.708252 1036.839600,713.853882 1048.514282,720.163818 
	C1048.467041,720.804993 1048.419922,721.446106 1048.372681,722.087219 
	C1039.080933,722.810608 1029.789307,723.533997 1020.497559,724.257324 
	C1020.495789,724.396912 1020.494019,724.536499 1020.492249,724.676086 
	C1030.441162,725.402466 1040.411865,725.924377 1050.325317,726.983215 
	C1053.193237,727.289612 1055.896484,729.137146 1058.675293,730.278137 
	C1058.497925,730.789124 1058.320435,731.300171 1058.143066,731.811218 
	C1048.955933,732.587891 1039.768677,733.364563 1030.581543,734.141235 
	C1030.603271,734.276978 1030.625000,734.412659 1030.646606,734.548401 
	C1040.541382,735.228577 1050.456665,735.708496 1060.317627,736.718506 
	C1063.054565,736.998840 1065.630249,738.851990 1068.279785,739.983521 
	C1068.119141,740.560669 1067.958496,741.137817 1067.797852,741.714905 
	C1060.438110,742.242188 1053.078369,742.769409 1045.718628,743.296692 
	C1045.637573,743.498169 1045.556396,743.699585 1045.475342,743.901062 
	C1046.611694,744.245850 1047.732056,744.815613 1048.887207,744.898560 
	C1055.700073,745.387451 1062.554565,745.486633 1069.323975,746.304504 
	C1072.294800,746.663391 1075.098022,748.409912 1077.977295,749.526367 
	C1077.841919,750.170776 1077.706543,750.815247 1077.571289,751.459717 
	C1068.425903,752.101807 1059.280518,752.743896 1050.135132,753.385986 
	C1050.119507,753.572998 1050.103882,753.760071 1050.088135,753.947144 
	C1060.189819,754.652832 1070.300171,755.257935 1080.386475,756.139221 
	C1082.728882,756.343933 1084.989014,757.489929 1087.286987,758.202759 
	C1087.164673,758.686768 1087.042358,759.170715 1086.919922,759.654724 
	C1083.326904,759.654724 1079.733765,759.654724 1076.140625,759.654724 
	C1044.642578,759.654724 1013.143494,759.528259 981.647583,759.788208 
	C976.802734,759.828125 973.718506,758.053894 971.208862,754.456665 
	C963.403259,743.268860 955.646606,732.046936 947.980347,720.376038 
	C948.089783,719.913818 948.327148,719.687561 948.327148,719.687561 
z"/>
<path fill="#050505" opacity="1.000000" stroke="none" 
	d="
M1157.424316,717.022827 
	C1157.542603,738.262756 1142.070312,756.029602 1122.003174,758.929199 
	C1100.902100,761.978271 1081.566040,750.343201 1075.357300,730.691650 
	C1070.136841,714.168213 1073.631836,699.199097 1086.123535,687.156494 
	C1098.590820,675.137451 1113.680298,671.848877 1129.945068,677.983521 
	C1146.335083,684.165405 1155.454224,696.494263 1157.225830,714.055908 
	C1157.309448,714.884460 1157.358398,715.716492 1157.424316,717.022827 
M1111.607422,703.908630 
	C1103.207275,707.180115 1099.472900,714.243164 1102.069336,721.948242 
	C1104.341064,728.689636 1111.797485,732.675476 1118.898193,730.944031 
	C1125.955322,729.223206 1130.432861,721.840149 1128.962158,714.349365 
	C1127.519409,707.001404 1120.630371,702.599121 1111.607422,703.908630 
M1107.630493,748.965515 
	C1093.538086,743.903564 1085.550903,733.398376 1081.464722,717.879761 
	C1080.249146,737.458618 1097.385376,754.635376 1112.556885,750.553223 
	C1111.063354,750.056641 1109.709473,749.606445 1107.630493,748.965515 
M1144.079224,696.479614 
	C1136.936523,686.993591 1127.409668,682.377869 1116.712646,683.814758 
	C1133.781738,688.175293 1144.360840,698.285950 1148.818604,716.128113 
	C1149.566284,707.654358 1148.742798,704.436279 1144.079224,696.479614 
M1137.887085,708.729065 
	C1133.603882,698.217224 1126.271729,693.236877 1115.833130,694.829163 
	C1127.186157,698.457458 1134.250244,705.205444 1138.015259,715.603577 
	C1138.015259,713.563354 1138.015259,711.523132 1137.887085,708.729065 
M1094.066162,721.528931 
	C1093.593140,720.676331 1093.120117,719.823669 1092.268677,718.288879 
	C1091.723267,732.191467 1103.457520,743.404541 1113.745117,739.454895 
	C1104.491943,736.654236 1098.018555,730.952087 1094.066162,721.528931 
z"/>
<path fill="#050505" opacity="1.000000" stroke="none" 
	d="
M947.972046,720.027893 
	C947.657776,719.958984 947.461243,719.776062 947.264648,719.593140 
	C947.524475,719.507507 947.784241,719.421875 948.185608,719.511902 
	C948.327148,719.687561 948.089783,719.913818 947.972046,720.027893 
z"/>
<path fill="#030303" opacity="1.000000" stroke="none" 
	d="
M913.985107,878.862671 
	C901.713501,877.579285 894.572266,871.896240 893.009521,860.219604 
	C892.000610,852.680908 892.345459,844.609985 893.922852,837.167297 
	C895.793640,828.340515 904.530701,822.455627 912.952881,822.260254 
	C921.246155,822.067871 928.663147,827.079102 932.122192,835.641968 
	C935.936157,845.083923 936.243774,854.821716 932.752502,864.359619 
	C929.682373,872.746948 923.860291,878.259766 913.985107,878.862671 
z"/>
<path fill="#070707" opacity="1.000000" stroke="none" 
	d="
M990.001404,845.817627 
	C983.867859,845.817627 978.233765,845.817627 972.610901,845.817627 
	C972.199341,832.203369 982.155945,821.606689 994.589661,822.128906 
	C1006.624329,822.634399 1013.976013,832.256653 1012.192749,845.817627 
	C1005.019165,845.817627 997.760010,845.817627 990.001404,845.817627 
z"/>
<path fill="#050505" opacity="1.000000" stroke="none" 
	d="
M1054.774902,830.907043 
	C1058.774536,825.523132 1063.800903,822.609619 1070.140137,822.157043 
	C1083.129761,821.229614 1091.322876,830.662231 1090.089111,845.449707 
	C1076.929443,845.449707 1063.730713,845.449707 1049.125122,845.449707 
	C1051.025391,840.470459 1052.793091,835.838257 1054.774902,830.907043 
z"/>
<path fill="#030303" opacity="1.000000" stroke="none" 
	d="
M1247.584961,872.556030 
	C1235.248169,883.836304 1218.719238,880.806396 1211.762695,866.033752 
	C1206.891479,855.689636 1207.171875,845.076843 1212.012573,834.758850 
	C1216.081055,826.086792 1223.078857,821.756042 1232.749268,822.162048 
	C1242.638794,822.577209 1249.431152,827.584900 1252.520508,836.873291 
	C1256.660645,849.320679 1256.228149,861.390503 1247.584961,872.556030 
z"/>
<path fill="#050505" opacity="1.000000" stroke="none" 
	d="
M846.921509,860.912842 
	C846.643372,874.414307 837.186707,881.728882 824.424683,878.770691 
	C818.625977,877.426575 815.133362,873.347900 814.830383,867.566589 
	C814.519714,861.637024 817.382812,856.476868 823.491882,855.222656 
	C831.019226,853.677307 838.842224,853.572144 846.921814,852.808228 
	C846.921814,856.166748 846.921814,858.311096 846.921509,860.912842 
z"/>
<path fill="#030303" opacity="1.000000" stroke="none" 
	d="
M748.219421,912.928467 
	C760.430054,907.929443 772.411072,912.765564 776.889465,924.209045 
	C781.192749,935.205078 775.274536,947.649597 763.884888,951.554504 
	C753.093628,955.254211 741.302612,949.217590 737.635986,938.115906 
	C734.487183,928.582092 738.283691,919.286621 748.219421,912.928467 
z"/>
<path fill="#070707" opacity="1.000000" stroke="none" 
	d="
M1168.956299,938.751099 
	C1170.351196,945.943970 1167.571899,950.897705 1161.776489,952.132690 
	C1155.934082,953.377747 1150.709839,950.031982 1149.452148,944.239868 
	C1148.300903,938.937866 1151.897339,933.410706 1157.468872,932.422363 
	C1162.636475,931.505737 1166.479126,933.638977 1168.956299,938.751099 
z"/>
<path fill="#070707" opacity="1.000000" stroke="none" 
	d="
M1117.092896,949.123657 
	C1112.918579,952.957825 1108.535522,953.572266 1104.028198,950.884766 
	C1100.256592,948.635986 1098.633423,944.991028 1099.399780,940.655518 
	C1100.201294,936.121887 1103.064697,933.210327 1107.610840,932.351257 
	C1111.718506,931.575073 1115.275024,932.980713 1117.690308,936.368042 
	C1120.632568,940.494507 1120.390625,944.754089 1117.092896,949.123657 
z"/>
<path fill="#050505" opacity="1.000000" stroke="none" 
	d="
M854.993896,952.469238 
	C849.786560,952.067139 846.357178,949.710388 845.131592,945.025635 
	C844.107178,941.109802 844.926453,937.380066 848.213623,934.653381 
	C851.582764,931.858826 855.431885,931.303467 859.360596,933.246826 
	C863.702698,935.394775 865.680664,939.121094 864.920532,943.887878 
	C864.082825,949.141357 860.653625,951.891174 854.993896,952.469238 
z"/>
<path fill="#F6F6F6" opacity="1.000000" stroke="none" 
	d="
M1111.989624,703.828125 
	C1120.630371,702.599121 1127.519409,707.001404 1128.962158,714.349365 
	C1130.432861,721.840149 1125.955322,729.223206 1118.898193,730.944031 
	C1111.797485,732.675476 1104.341064,728.689636 1102.069336,721.948242 
	C1099.472900,714.243164 1103.207275,707.180115 1111.989624,703.828125 
M1121.442627,716.711243 
	C1120.441772,712.497864 1117.746582,709.979431 1113.627197,711.684814 
	C1111.609131,712.520264 1109.585205,715.625916 1109.334351,717.899414 
	C1108.975342,721.153381 1111.617798,723.349487 1115.027954,723.432800 
	C1118.919067,723.527893 1121.109131,721.338074 1121.442627,716.711243 
z"/>
<path fill="#E5E5E5" opacity="1.000000" stroke="none" 
	d="
M1107.992920,749.060913 
	C1109.709473,749.606445 1111.063354,750.056641 1112.556885,750.553223 
	C1097.385376,754.635376 1080.249146,737.458618 1081.464722,717.879761 
	C1085.550903,733.398376 1093.538086,743.903564 1107.992920,749.060913 
z"/>
<path fill="#E7E7E7" opacity="1.000000" stroke="none" 
	d="
M1144.295166,696.773193 
	C1148.742798,704.436279 1149.566284,707.654358 1148.818604,716.128113 
	C1144.360840,698.285950 1133.781738,688.175293 1116.712646,683.814758 
	C1127.409668,682.377869 1136.936523,686.993591 1144.295166,696.773193 
z"/>
<path fill="#E7E7E7" opacity="1.000000" stroke="none" 
	d="
M1137.951172,709.105957 
	C1138.015259,711.523132 1138.015259,713.563354 1138.015259,715.603577 
	C1134.250244,705.205444 1127.186157,698.457458 1115.833130,694.829163 
	C1126.271729,693.236877 1133.603882,698.217224 1137.951172,709.105957 
z"/>
<path fill="#E5E5E5" opacity="1.000000" stroke="none" 
	d="
M1094.187622,721.860779 
	C1098.018555,730.952087 1104.491943,736.654236 1113.745117,739.454895 
	C1103.457520,743.404541 1091.723267,732.191467 1092.268677,718.288879 
	C1093.120117,719.823669 1093.593140,720.676331 1094.187622,721.860779 
z"/>
<path fill="#070707" opacity="1.000000" stroke="none" 
	d="
M1121.475342,717.072632 
	C1121.109131,721.338074 1118.919067,723.527893 1115.027954,723.432800 
	C1111.617798,723.349487 1108.975342,721.153381 1109.334351,717.899414 
	C1109.585205,715.625916 1111.609131,712.520264 1113.627197,711.684814 
	C1117.746582,709.979431 1120.441772,712.497864 1121.475342,717.072632 
z"/>
</svg>